<?xml version="1.0" encoding="utf-8" ?>
<svg xmlns="http://www.w3.org/2000/svg" xmlns:xlink="http://www.w3.org/1999/xlink" width="50" height="50">
	<path fill="#262626" transform="scale(0.078125 0.078125)" d="M233.496 116.436C242.011 114.009 250.062 107.654 257.639 103.165C282.827 88.2447 277.162 88.9936 305.34 89.1539C321.536 89.246 337.794 88.8463 353.979 89.1176C394.894 89.8034 455.419 91.3207 490.547 109.423C520.544 124.882 539.339 159.561 542.335 192.563C537.061 194.252 518.43 200.787 513.991 199.866C512.211 198.256 511.605 193.642 510.932 191.305C510.388 188.489 509.235 185.765 508.601 182.954C508.975 181.324 506.825 177.594 506.119 176.02C505.632 173.169 504.199 170.108 503.205 167.377L503.79 166.574C502.761 165.849 501.991 165.145 501.199 164.162L500.964 163.865C498.403 158.948 494.441 155.265 491.845 150.556C492.361 149.077 492.945 148.518 494.174 147.611C496.927 145.804 511.479 138.144 511.733 135.91L511.203 135.71C507.173 136.893 497.506 144.248 493.748 147.189C492.706 147.715 491.635 148.185 490.573 148.67L487.909 146.361C485.339 143.727 482.028 141.463 478.645 140.041L479.079 138.617C479.6 138.217 479.969 137.847 480.37 137.328L480.278 136.794L479.046 137.868C476.501 138.144 467.133 132.532 461.508 131.523C457.724 129.873 452.983 130.648 449.119 129.239C444.556 130.134 436.335 129.048 432.217 126.922C429.152 126.543 426.295 126.819 423.329 125.715C419.105 126.713 416.869 126.31 413.071 124.151C410.005 122.387 402.906 125.122 399.294 122.381C397.358 123.313 391.283 121.779 389.252 121.03C385.425 121.881 371.206 120.745 367.504 118.945C364.885 119.247 361.928 119.702 359.324 119.186C353.87 119.694 340.39 119.025 335.592 116.663C333.532 116.357 331.395 116.686 329.293 116.394L328.445 116.556C324.258 117.39 310.674 117.263 307.122 115.133C304.1 115.738 300.33 115.249 297.237 115.167C292.346 116.443 281.034 118.93 276.566 117.028C271.427 119.482 267.385 123.024 262.552 125.851L263.038 125.155L262.908 124.523L263.136 124.992L263.236 124.425C259.842 125.063 261.435 124.923 260.5 122.328L259.692 122.899C253.164 124.373 235.511 119.69 233.496 116.436ZM260.5 122.328C261.435 124.923 259.842 125.063 263.236 124.425L263.136 124.992L262.908 124.523L263.038 125.155L262.552 125.851C267.385 123.024 271.427 119.482 276.566 117.028C287.102 108.873 296.774 99.8903 306.853 91.2189C290.014 91.4776 274.376 112.146 260.5 122.328ZM297.237 115.167C300.33 115.249 304.1 115.738 307.122 115.133C317.93 106.539 327.135 101.818 337.177 90.9012C321.448 91.3203 308.718 105.826 297.237 115.167ZM389.252 121.03C391.283 121.779 397.358 123.313 399.294 122.381C409.169 113.681 420.34 105.024 431.731 98.5621C410.528 97.1806 406.791 110.892 389.252 121.03ZM329.293 116.394C331.395 116.686 333.532 116.357 335.592 116.663C347.46 113.23 360.641 100.712 370.816 93.6477C354.387 93.6907 341.448 106.83 329.293 116.394ZM359.324 119.186C361.928 119.702 364.885 119.247 367.504 118.945C381.077 113.544 391.354 104.022 402.942 95.5014C386.245 93.3803 375.804 112.454 359.324 119.186ZM413.071 124.151C416.869 126.31 419.105 126.713 423.329 125.715C431.374 121.774 446.091 109.007 454.98 102.907C434.327 101.193 427.386 123.024 413.071 124.151Z"/>
	<path fill="white" transform="scale(0.078125 0.078125)" d="M483.917 114.978L486.889 115.865C481.22 118.896 476.004 123.115 470.686 126.738C470.174 127.033 469.85 127.218 469.266 127.351C469.725 125.431 481.559 116.598 483.917 114.978Z"/>
	<path fill="white" transform="scale(0.078125 0.078125)" d="M498.387 123.074C499.278 123.637 500.351 124.025 501.313 124.459C494.808 127.26 488.603 131.95 482.567 135.666C482.232 135.883 481.883 136.143 481.509 136.292L481.51 135.945L481.899 135.815L481.859 135.602L482.059 135.71L482 135.478C487.26 131.05 492.968 127.283 498.387 123.074Z"/>
	<path fill="white" transform="scale(0.078125 0.078125)" d="M533.337 171.265L533.877 171.32C538.934 175.436 517.723 180.082 515.25 180.657C514.656 180.751 514.038 180.763 513.438 180.804C516.302 178.349 529.088 173.354 533.337 171.265Z"/>
	<path fill="white" transform="scale(0.078125 0.078125)" d="M432.217 126.922C444.057 127.156 445.867 124.965 455.19 118.194C458.432 115.84 470.975 105.717 474.857 108.185L474.409 108.22L474.611 108.584C472.173 111.881 451.878 127.88 449.119 129.239C444.556 130.134 436.335 129.048 432.217 126.922Z"/>
	<path fill="#D94452" transform="scale(0.078125 0.078125)" d="M516.774 200.742C525.38 199.731 534.178 197.353 542.284 194.295C545.513 200.728 548.2 231.718 548.922 239.346C551.903 270.847 551.674 302.156 551.568 333.748C551.426 375.684 551.891 411.754 542.122 452.819C524.009 528.959 488.146 535.403 416.72 545.029C406.014 546.472 395.383 548.768 384.642 549.932C354.358 553.213 328.723 553.4 298.781 552.609C269.053 551.824 239.191 549.908 209.917 544.37C174.517 537.672 143.581 528.443 119.75 499.052C94.9366 468.449 93.6256 411.422 92.1705 372.449C90.8655 337.497 90.177 302.665 91.576 267.675C93.2755 225.17 96.416 167.531 122.849 133.578C138.638 113.298 165.685 97.5744 190.865 94.0973C196.799 93.2779 202.746 93.4886 208.715 93.3082L236.516 92.334C246.749 91.9749 256.99 89.6949 267.221 90.7797C253.346 98.7787 242.952 108.268 229.942 116.096C231.128 116.197 232.313 116.3 233.496 116.436C235.511 119.69 253.164 124.373 259.692 122.899L260.5 122.328C261.435 124.923 259.842 125.063 263.236 124.425L263.136 124.992L262.908 124.523L263.038 125.155L262.552 125.851C267.385 123.024 271.427 119.482 276.566 117.028C281.034 118.93 292.346 116.443 297.237 115.167C300.33 115.249 304.1 115.738 307.122 115.133C310.674 117.263 324.258 117.39 328.445 116.556L329.293 116.394C331.395 116.686 333.532 116.357 335.592 116.663C340.39 119.025 353.87 119.694 359.324 119.186C361.928 119.702 364.885 119.247 367.504 118.945C371.206 120.745 385.425 121.881 389.252 121.03C391.283 121.779 397.358 123.313 399.294 122.381C402.906 125.122 410.005 122.387 413.071 124.151C416.869 126.31 419.105 126.713 423.329 125.715C426.295 126.819 429.152 126.543 432.217 126.922C436.335 129.048 444.556 130.134 449.119 129.239C452.983 130.648 457.724 129.873 461.508 131.523C467.133 132.532 476.501 138.144 479.046 137.868L480.278 136.794L480.37 137.328C479.969 137.847 479.6 138.217 479.079 138.617L478.645 140.041C482.028 141.463 485.339 143.727 487.909 146.361L490.573 148.67C491.635 148.185 492.706 147.715 493.748 147.189C497.506 144.248 507.173 136.893 511.203 135.71L511.733 135.91C511.479 138.144 496.927 145.804 494.174 147.611C492.945 148.518 492.361 149.077 491.845 150.556C494.441 155.265 498.403 158.948 500.964 163.865L501.199 164.162C501.991 165.145 502.761 165.849 503.79 166.574L503.205 167.377C504.199 170.108 505.632 173.169 506.119 176.02C506.825 177.594 508.975 181.324 508.601 182.954C509.235 185.765 510.388 188.489 510.932 191.305C507.359 197.952 499.374 202.344 493.496 206.676L471.211 222.996C484.017 219.86 505.359 199.937 516.774 200.742ZM516.774 200.742C515.673 200.87 514.664 200.894 513.558 200.812C513.87 203.585 514.165 206.36 514.562 209.122C514.92 213.155 516.592 217.341 516.296 221.364C516.389 227.35 519.098 238.052 518.53 243.102C517.132 243.175 496.956 255.89 494.645 257.637C498.612 256.422 518.19 248.106 519.863 246.023C520.003 249.662 521.01 258.148 520.58 261.122C520.545 261.13 501.924 272.152 500.651 273.171C507.741 271.326 513.7 267.177 520.501 264.745L520.72 264.271C521.157 268.893 521.545 273.487 521.606 278.132C521.74 279.923 521.75 281.838 522.058 283.602C522.666 297.218 523.836 310.811 522.976 324.441C522.659 327.222 522.638 330.055 522.529 332.851C522.493 336.157 522.989 344.607 521.94 347.218C521.787 350.064 521.525 352.978 521.636 355.829C521.646 357.885 521.622 359.927 521.52 361.982L521.536 364.206C521.574 369.913 521.78 375.675 521.506 381.374C521.432 382.907 521.304 384.464 521.291 385.998C521.496 391.552 518.364 409.025 522.603 409.946C522.945 410.57 522.689 410.341 523.401 410.598C522.386 410.535 521.37 410.459 520.354 410.419C519.65 419.859 518.821 431.49 515.423 440.328L514.506 443.478C513.764 447.897 512.82 452.386 512.625 456.87C514.669 456.463 520.917 454.293 522.551 455.19C520.381 456.612 515.221 457.223 512.694 457.071C512.397 458.957 512.304 461.411 511.662 463.174L511.385 463.058C509.888 465.23 509.205 467.706 507.948 469.973C493.257 496.448 477.348 501.504 453.647 513.843C452.188 513.321 450.549 513.376 449.014 513.342L448.755 512.945C438.994 512.198 429.776 516.124 420.841 519.29C414.934 519.231 408.96 520.222 403.061 520.518L402.805 520.12C398.59 519.772 382.527 520.533 378.77 521.735C373.644 520.769 368.455 521.589 363.287 521.573C358.485 517.817 341.31 521.584 335.335 524.195C331.724 523.518 327.86 524.554 324.205 524.355C319.761 522.744 310.899 522.937 306.135 523.623L304.829 523.391L304.964 523.202L304.754 522.936C295.557 521.995 286.332 522.145 277.106 522.318C273.664 522.386 270.144 521.928 266.69 521.84C262.364 520.978 242.344 518.442 238.651 518.984C236.345 518.803 233.352 518.289 231.169 517.556L231.203 517.52L231.145 517.309C226.737 516.116 218.161 513.826 213.837 514.847L213.776 515.343C210.685 512.85 202.206 513.53 198.255 513.551C192.561 514.297 179.638 525.281 170.413 527.425L164.856 525.591C170.788 522.817 185.18 514.988 189.714 510.828C181.414 509.408 172.398 505.781 165.184 501.546C164.588 501.239 163.959 500.992 163.344 500.726C154.868 505.65 152.959 507.284 142.589 510.218C148.546 506.042 155.193 503.074 160.955 498.56L160.903 498.092C159.102 495.463 156.563 493.324 154.192 491.232C150.343 495.035 137.699 499.966 132.231 501.23C138.466 497.645 148.015 494.451 153.214 490.936C153.36 489.975 153.012 489.682 152.543 488.852C150.732 486.873 149.113 484.775 147.485 482.647L145.655 480.641C142.475 479.591 129.277 486.987 124.306 487.751C130.391 484.305 137.497 483.127 143.549 479.84L143.303 479.565L143.756 479.629C143.597 478.3 142.266 477.017 141.656 475.806L141.448 475.382C139.039 471.885 136.819 469.053 136.475 464.64C134.589 461.283 133.885 456.026 132.707 452.28L132.187 451.783C128.794 451.612 113.364 458.582 107.661 459.451C115.045 454.599 123.238 453.405 131.4 450.611L131.752 450.488C131.643 449.228 131.38 447.995 131.143 446.754L130.789 445.71C128.521 436.954 125.358 440.281 127.185 437.775C129.168 435.053 126.808 421.561 126.34 417.937C117.995 420.452 110.32 423.542 101.713 425.847C107.025 422.414 123.772 418.774 126.167 415.996C124.996 411.531 124.739 407.009 124.345 402.43C123.343 400.12 121.475 369.68 122.568 363.595C126.641 361.174 129.583 358.468 131.962 354.362C130.123 355.255 123.093 358.656 122.272 359.996L121.22 329.446C118.034 332.561 100.451 339.755 97.997 339.037C100.033 337.4 117.363 330.207 121.252 329.037C120.794 322.199 121.96 279.463 121.189 277.556L121.405 277.307C121.612 276.482 121.715 276.016 121.551 275.159C122.254 269.885 122.083 264.28 122.23 258.947C115.238 260.981 108.607 265.22 102.927 266.86L103.031 266.515C108.137 262.827 116.376 259.377 122.44 257.749C122.805 253.003 122.099 245.72 123.225 241.43C121.584 238.797 105.556 248.569 98.1726 250.131C105.936 246.427 113.527 241.268 122.046 239.494C122.799 238.688 123.379 237.814 123.987 236.896C124.065 227.325 125.642 217.943 125.995 208.45L126.701 205.329C131.551 173.736 136.568 144.769 165.706 126.927C185.051 115.081 186.771 119.348 205.582 115.812C208.285 115.799 210.984 115.357 213.69 115.523C217.836 117.146 225.347 116.243 229.942 116.096C242.952 108.268 253.346 98.7787 267.221 90.7797C256.99 89.6949 246.749 91.9749 236.516 92.334L208.715 93.3082C202.746 93.4886 196.799 93.2779 190.865 94.0973C165.685 97.5744 138.638 113.298 122.849 133.578C96.416 167.531 93.2755 225.17 91.576 267.675C90.177 302.665 90.8655 337.497 92.1705 372.449C93.6256 411.422 94.9366 468.449 119.75 499.052C143.581 528.443 174.517 537.672 209.917 544.37C239.191 549.908 269.053 551.824 298.781 552.609C328.723 553.4 354.358 553.213 384.642 549.932C395.383 548.768 406.014 546.472 416.72 545.029C488.146 535.403 524.009 528.959 542.122 452.819C551.891 411.754 551.426 375.684 551.568 333.748C551.674 302.156 551.903 270.847 548.922 239.346C548.2 231.718 545.513 200.728 542.284 194.295C534.178 197.353 525.38 199.731 516.774 200.742Z"/>
	<path fill="#FD839E" transform="scale(0.078125 0.078125)" d="M521.636 355.829C519.186 354.284 519.594 348.398 521.94 347.218C521.787 350.064 521.525 352.978 521.636 355.829Z"/>
	<path fill="white" transform="scale(0.078125 0.078125)" d="M313.09 175.916C315.856 174.008 323.973 168.641 322.856 175.24C319.555 175.369 316.411 176.149 313.09 175.916Z"/>
	<defs>
		<linearGradient id="gradient_0" gradientUnits="userSpaceOnUse" x1="146.93681" y1="481.0961" x2="155.31897" y2="477.8291">
			<stop offset="0" stop-color="#F6AFB3"/>
			<stop offset="1" stop-color="#E0C1C0"/>
		</linearGradient>
	</defs>
	<path fill="url(#gradient_0)" transform="scale(0.078125 0.078125)" d="M145.655 480.641C149.547 478.511 158.196 476.08 162.559 475.023C158.583 477.188 150.717 480.285 147.485 482.647L145.655 480.641Z"/>
	<path fill="white" transform="scale(0.078125 0.078125)" d="M493.39 188.193C496.603 184.311 501.942 181.878 504.823 178.475C505.48 177.699 505.293 176.527 506.119 176.02C506.825 177.594 508.975 181.324 508.601 182.954C503.837 185.127 498.371 186.513 493.39 188.193Z"/>
	<path fill="white" transform="scale(0.078125 0.078125)" d="M260.5 122.328C261.435 124.923 259.842 125.063 263.236 124.425L263.136 124.992L262.908 124.523L263.038 125.155L262.552 125.851C259.234 129.091 243.395 139.088 239.022 140.933C245.552 134.534 253.2 129.354 259.692 122.899L260.5 122.328Z"/>
	<path fill="white" transform="scale(0.078125 0.078125)" d="M500.964 163.865L501.199 164.162C501.991 165.145 502.761 165.849 503.79 166.574L503.205 167.377C500.993 169.545 475.95 183.176 473.737 183.978C481.829 177.761 493.832 170.407 500.964 163.865Z"/>
	<path fill="white" transform="scale(0.078125 0.078125)" d="M492.496 403.646C495.645 400.367 521.183 381.486 521.506 381.374C521.432 382.907 521.304 384.464 521.291 385.998C511.301 390.918 503.579 400.938 492.496 403.646Z"/>
	<path fill="white" transform="scale(0.078125 0.078125)" d="M488.59 380.025C492.995 377.418 517.92 360.531 521.108 361.191L521.52 361.982L521.536 364.206C511.298 366.832 501.403 377.051 488.59 380.025Z"/>
	<path fill="white" transform="scale(0.078125 0.078125)" d="M514.652 216.909C514.441 215.142 513.741 210.617 514.562 209.122C514.92 213.155 516.592 217.341 516.296 221.364C507.343 226.45 494.17 232.798 484.901 236.738C492.111 230.306 506.172 222.942 514.652 216.909Z"/>
	<path fill="white" transform="scale(0.078125 0.078125)" d="M131.143 446.754L131.457 447.073C134.571 450.308 152.229 437.271 158.174 434.717C149.528 442.338 140.797 446.037 132.707 452.28L132.187 451.783C128.794 451.612 113.364 458.582 107.661 459.451C115.045 454.599 123.238 453.405 131.4 450.611L131.752 450.488C131.643 449.228 131.38 447.995 131.143 446.754Z"/>
	<path fill="white" transform="scale(0.078125 0.078125)" d="M461.508 131.523C467.133 132.532 476.501 138.144 479.046 137.868L480.278 136.794L480.37 137.328C479.969 137.847 479.6 138.217 479.079 138.617L478.645 140.041L478.435 140.172C477.272 139.947 475.845 138.458 474.908 137.71C468.561 136.748 449.662 149.368 441.176 152.659C448.911 147.041 459.414 141.564 465.564 134.149C463.936 133.475 462.832 132.673 461.508 131.523Z"/>
	<path fill="white" transform="scale(0.078125 0.078125)" d="M165.288 183.137C161.387 188.069 132.034 208.583 126.955 209.903L126.308 209.657L125.995 208.45L126.701 205.329C138.339 201.782 154.1 189.357 165.288 183.137Z"/>
	<path fill="white" transform="scale(0.078125 0.078125)" d="M160.903 498.092C161.831 495.326 188.045 478.334 191.805 475.845C185.698 483.68 173.906 491.361 165.472 496.826C162.764 497.917 161.477 497.828 163.344 500.726C154.868 505.65 152.959 507.284 142.589 510.218C148.546 506.042 155.193 503.074 160.955 498.56L160.903 498.092Z"/>
	<path fill="white" transform="scale(0.078125 0.078125)" d="M237.136 431.398C238.908 432.443 240.728 433.446 242.459 434.556C235.088 440.635 220.449 450.967 211.607 453.646C219.28 447.416 230.603 438.676 237.136 431.398Z"/>
	<path fill="white" transform="scale(0.078125 0.078125)" d="M464.837 475.851C470.218 471.4 476.728 468.044 482.374 463.878L504.323 447.414C506.818 445.531 512.095 439.462 515.423 440.328L514.506 443.478C503.66 453.578 477.401 470.345 464.837 475.851Z"/>
	<path fill="white" transform="scale(0.078125 0.078125)" d="M123.987 236.896C129.234 233.762 150.512 220.381 154.977 220.03L155.175 220.367C153.519 222.344 124.999 241.157 123.225 241.43C121.584 238.797 105.556 248.569 98.1726 250.131C105.936 246.427 113.527 241.268 122.046 239.494C122.799 238.688 123.379 237.814 123.987 236.896Z"/>
	<path fill="white" transform="scale(0.078125 0.078125)" d="M493.748 147.189C497.506 144.248 507.173 136.893 511.203 135.71L511.733 135.91C511.479 138.144 496.927 145.804 494.174 147.611C492.945 148.518 492.361 149.077 491.845 150.556C490.702 153.507 458.146 170.293 453.451 171.429C457.666 168.851 486.462 150.227 487.909 146.361L490.573 148.67C491.635 148.185 492.706 147.715 493.748 147.189Z"/>
	<path fill="white" transform="scale(0.078125 0.078125)" d="M136.475 464.64C136.934 465.19 137.28 465.696 137.527 466.383C144.358 469.533 179.628 448.059 190.15 442.227C185.016 447.157 179.363 451.948 173.19 455.512C169.373 457.716 142.521 469.302 141.37 472.182C140.997 473.114 141.461 474.414 141.448 475.382C139.039 471.885 136.819 469.053 136.475 464.64Z"/>
	<path fill="white" transform="scale(0.078125 0.078125)" d="M430.677 434.994L430.761 435.502C422.28 445.697 368.669 480.855 354.661 486.107C354.848 485.384 416.033 445.755 430.677 434.994Z"/>
	<path fill="white" transform="scale(0.078125 0.078125)" d="M457.39 449.387L457.475 449.439L457.55 449.845C453.973 455.043 424.4 477.518 417.958 482.346C404.118 492.717 375.845 513.368 361.167 519.254L361.006 518.96C363.996 516.039 373.184 510.283 377.087 507.51L414.25 480.914C428.741 470.579 442.035 458.528 457.39 449.387Z"/>
	<path fill="white" transform="scale(0.078125 0.078125)" d="M124.345 402.43L124.686 402.825C128.818 407.692 148.7 393.657 155.173 391.364C149.473 396.727 126.906 407.827 126.779 412.991C126.662 417.722 128.012 428.077 129.3 432.691C140.451 427.151 153.273 420.345 164.25 414.477C168.965 411.956 173.586 408.653 178.479 406.575C167.981 418.065 144.864 430.632 129.915 438.198C130.272 440.529 131.048 443.378 130.789 445.71C128.521 436.954 125.358 440.281 127.185 437.775C129.168 435.053 126.808 421.561 126.34 417.937C117.995 420.452 110.32 423.542 101.713 425.847C107.025 422.414 123.772 418.774 126.167 415.996C124.996 411.531 124.739 407.009 124.345 402.43Z"/>
	<path fill="white" transform="scale(0.078125 0.078125)" d="M189.714 510.828C210.634 503.706 232.793 487.59 250.648 474.632C258.24 469.122 267.674 461.475 276.192 457.81C263.559 471.971 220.748 499.931 204.411 509.761C202.388 510.979 200.095 512.094 198.255 513.551C192.561 514.297 179.638 525.281 170.413 527.425L164.856 525.591C170.788 522.817 185.18 514.988 189.714 510.828Z"/>
	<path fill="#262626" transform="scale(0.078125 0.078125)" d="M516.774 200.742C525.38 199.731 534.178 197.353 542.284 194.295C545.513 200.728 548.2 231.718 548.922 239.346C551.903 270.847 551.674 302.156 551.568 333.748C551.426 375.684 551.891 411.754 542.122 452.819C524.009 528.959 488.146 535.403 416.72 545.029C406.014 546.472 395.383 548.768 384.642 549.932C354.358 553.213 328.723 553.4 298.781 552.609C269.053 551.824 239.191 549.908 209.917 544.37C174.517 537.672 143.581 528.443 119.75 499.052C94.9366 468.449 93.6256 411.422 92.1705 372.449C90.8655 337.497 90.177 302.665 91.576 267.675C93.2755 225.17 96.416 167.531 122.849 133.578C138.638 113.298 165.685 97.5744 190.865 94.0973C196.799 93.2779 202.746 93.4886 208.715 93.3082L236.516 92.334C246.749 91.9749 256.99 89.6949 267.221 90.7797C253.346 98.7787 242.952 108.268 229.942 116.096C225.347 116.243 217.836 117.146 213.69 115.523C210.984 115.357 208.285 115.799 205.582 115.812C186.771 119.348 185.051 115.081 165.706 126.927C136.568 144.769 131.551 173.736 126.701 205.329L125.995 208.45C125.642 217.943 124.065 227.325 123.987 236.896C123.379 237.814 122.799 238.688 122.046 239.494C113.527 241.268 105.936 246.427 98.1726 250.131C105.556 248.569 121.584 238.797 123.225 241.43C122.099 245.72 122.805 253.003 122.44 257.749C116.376 259.377 108.137 262.827 103.031 266.515L102.927 266.86C108.607 265.22 115.238 260.981 122.23 258.947C122.083 264.28 122.254 269.885 121.551 275.159C121.715 276.016 121.612 276.482 121.405 277.307L121.189 277.556C121.96 279.463 120.794 322.199 121.252 329.037C117.363 330.207 100.033 337.4 97.997 339.037C100.451 339.755 118.034 332.561 121.22 329.446L122.272 359.996C123.093 358.656 130.123 355.255 131.962 354.362C129.583 358.468 126.641 361.174 122.568 363.595C121.475 369.68 123.343 400.12 124.345 402.43C124.739 407.009 124.996 411.531 126.167 415.996C123.772 418.774 107.025 422.414 101.713 425.847C110.32 423.542 117.995 420.452 126.34 417.937C126.808 421.561 129.168 435.053 127.185 437.775C125.358 440.281 128.521 436.954 130.789 445.71L131.143 446.754C131.38 447.995 131.643 449.228 131.752 450.488L131.4 450.611C123.238 453.405 115.045 454.599 107.661 459.451C113.364 458.582 128.794 451.612 132.187 451.783L132.707 452.28C133.885 456.026 134.589 461.283 136.475 464.64C136.819 469.053 139.039 471.885 141.448 475.382L141.656 475.806C142.266 477.017 143.597 478.3 143.756 479.629L143.303 479.565L143.549 479.84C137.497 483.127 130.391 484.305 124.306 487.751C129.277 486.987 142.475 479.591 145.655 480.641L147.485 482.647C149.113 484.775 150.732 486.873 152.543 488.852C153.012 489.682 153.36 489.975 153.214 490.936C148.015 494.451 138.466 497.645 132.231 501.23C137.699 499.966 150.343 495.035 154.192 491.232C156.563 493.324 159.102 495.463 160.903 498.092L160.955 498.56C155.193 503.074 148.546 506.042 142.589 510.218C152.959 507.284 154.868 505.65 163.344 500.726C163.959 500.992 164.588 501.239 165.184 501.546C172.398 505.781 181.414 509.408 189.714 510.828C185.18 514.988 170.788 522.817 164.856 525.591L170.413 527.425C179.638 525.281 192.561 514.297 198.255 513.551C202.206 513.53 210.685 512.85 213.776 515.343L213.837 514.847C218.161 513.826 226.737 516.116 231.145 517.309L231.203 517.52L231.169 517.556C233.352 518.289 236.345 518.803 238.651 518.984C242.344 518.442 262.364 520.978 266.69 521.84C270.144 521.928 273.664 522.386 277.106 522.318C286.332 522.145 295.557 521.995 304.754 522.936L304.964 523.202L304.829 523.391L306.135 523.623C310.899 522.937 319.761 522.744 324.205 524.355C327.86 524.554 331.724 523.518 335.335 524.195C341.31 521.584 358.485 517.817 363.287 521.573C368.455 521.589 373.644 520.769 378.77 521.735C382.527 520.533 398.59 519.772 402.805 520.12L403.061 520.518C408.96 520.222 414.934 519.231 420.841 519.29C429.776 516.124 438.994 512.198 448.755 512.945L449.014 513.342C450.549 513.376 452.188 513.321 453.647 513.843C477.348 501.504 493.257 496.448 507.948 469.973C509.205 467.706 509.888 465.23 511.385 463.058L511.662 463.174C512.304 461.411 512.397 458.957 512.694 457.071C515.221 457.223 520.381 456.612 522.551 455.19C520.917 454.293 514.669 456.463 512.625 456.87C512.82 452.386 513.764 447.897 514.506 443.478L515.423 440.328C518.821 431.49 519.65 419.859 520.354 410.419C521.37 410.459 522.386 410.535 523.401 410.598C522.689 410.341 522.945 410.57 522.603 409.946C518.364 409.025 521.496 391.552 521.291 385.998C521.304 384.464 521.432 382.907 521.506 381.374C521.78 375.675 521.574 369.913 521.536 364.206L521.52 361.982C521.622 359.927 521.646 357.885 521.636 355.829C521.525 352.978 521.787 350.064 521.94 347.218C522.989 344.607 522.493 336.157 522.529 332.851C522.638 330.055 522.659 327.222 522.976 324.441C523.836 310.811 522.666 297.218 522.058 283.602C521.75 281.838 521.74 279.923 521.606 278.132C521.545 273.487 521.157 268.893 520.72 264.271L520.501 264.745C513.7 267.177 507.741 271.326 500.651 273.171C501.924 272.152 520.545 261.13 520.58 261.122C521.01 258.148 520.003 249.662 519.863 246.023C518.19 248.106 498.612 256.422 494.645 257.637C496.956 255.89 517.132 243.175 518.53 243.102C519.098 238.052 516.389 227.35 516.296 221.364C516.592 217.341 514.92 213.155 514.562 209.122C514.165 206.36 513.87 203.585 513.558 200.812C514.664 200.894 515.673 200.87 516.774 200.742ZM420.841 519.29C408.278 527.381 397.027 536.924 385.284 544.252C412.142 542.119 417.976 516.65 449.014 513.342L448.755 512.945C438.994 512.198 429.776 516.124 420.841 519.29ZM206.382 97.2876C195.188 98.7857 184.56 111.404 173.429 117.47C175.779 117.552 178.1 117.559 180.45 117.477C189.741 115.533 204.156 102.879 212.293 97.1725C210.365 97.1885 208.288 97.0525 206.382 97.2876ZM205.582 115.812C208.285 115.799 210.984 115.357 213.69 115.523C219.163 113.837 237.077 99.1311 241.011 94.2342C224.861 95.4365 218.1 108.3 205.582 115.812Z"/>
	<path fill="#636C77" transform="scale(0.078125 0.078125)" d="M544.71 385.033C547.331 388.915 539.759 389.256 537.632 389.78L537.44 389.405C539.666 387.636 542.502 386.876 544.71 385.033Z"/>
	<path fill="white" transform="scale(0.078125 0.078125)" d="M547.982 302.85L549.208 302.766L549.387 302.985C547.932 305.45 532.159 308.298 528.824 308.537C528.39 308.65 527.861 308.619 527.411 308.639L527.296 308.406L547.982 302.85Z"/>
	<path fill="white" transform="scale(0.078125 0.078125)" d="M121.551 275.159C121.715 276.016 121.612 276.482 121.405 277.307L121.189 277.556C113.945 280.626 106.574 283.396 99.2682 286.316C103.338 283.005 115.437 278.599 121.551 275.159Z"/>
	<path fill="white" transform="scale(0.078125 0.078125)" d="M124.158 207.973L124.199 208.157C117.576 211.542 109.891 214.657 102.762 216.848L102.718 216.518C105.709 212.927 119.372 209.104 124.158 207.973Z"/>
	<path fill="white" transform="scale(0.078125 0.078125)" d="M522.603 409.946C526.649 407.366 540.698 403.088 545.786 401.876L546.197 402.088C545.372 403.591 525.971 409.87 523.401 410.598C522.689 410.341 522.945 410.57 522.603 409.946Z"/>
	<path fill="white" transform="scale(0.078125 0.078125)" d="M117.651 401.306C118.824 401.173 120.017 401.163 121.197 401.118L121.124 401.906L121.978 401.348C121.116 402.371 107.899 405.776 105.231 406.626C103.357 407.224 101.436 407.719 99.5428 408.256C104.565 404.629 111.626 402.581 117.651 401.306Z"/>
	<path fill="white" transform="scale(0.078125 0.078125)" d="M548.888 285.959C549.303 286.004 549.958 286.122 549.595 286.686C547.982 289.197 534.284 292.468 530.694 293.483L530.041 293.371L530.124 292.965C533.45 291.018 544.967 286.867 548.888 285.959Z"/>
	<path fill="white" transform="scale(0.078125 0.078125)" d="M546.36 371.16C552.938 372.303 528.453 379.22 526.125 379.942L525.42 379.934L525.293 379.725C529.45 376.934 541.236 373.308 546.36 371.16Z"/>
	<path fill="white" transform="scale(0.078125 0.078125)" d="M118.147 312.165C118.809 312.1 118.966 312.064 119.595 312.343L119.549 312.859C116.767 315.402 102.696 320.281 98.4552 321.872L97.1785 322.083L97.2703 321.694C102.454 317.588 111.882 314.588 118.147 312.165Z"/>
	<path fill="white" transform="scale(0.078125 0.078125)" d="M544.653 418.125C545.528 421.935 525.018 427.755 521.368 428.81L521.123 428.586C522.004 426.703 541.456 419.467 544.653 418.125Z"/>
	<path fill="white" transform="scale(0.078125 0.078125)" d="M120.069 377.782C120.891 377.889 121.13 377.84 121.742 378.378L121.708 379.059C119.525 381.364 103.545 387.488 99.4874 389.339C99.1889 389.448 98.8405 389.491 98.5284 389.555L98.5175 389.103C102.08 385.405 115.086 379.624 120.069 377.782Z"/>
	<path fill="white" transform="scale(0.078125 0.078125)" d="M122.272 359.996C123.093 358.656 130.123 355.255 131.962 354.362C129.583 358.468 126.641 361.174 122.568 363.595C121.24 359.382 102.5 370.28 97.6602 371.891C103.912 366.311 113.929 362.96 122.019 361.143L122.272 359.996Z"/>
	<path fill="white" transform="scale(0.078125 0.078125)" d="M520.58 261.122C524.65 264.288 541.103 252.203 547.347 252.669L547.683 253.095C546.185 258.094 524.634 258.926 520.72 264.271L520.501 264.745C513.7 267.177 507.741 271.326 500.651 273.171C501.924 272.152 520.545 261.13 520.58 261.122Z"/>
	<path fill="white" transform="scale(0.078125 0.078125)" d="M518.53 243.102C524.857 245.068 540.529 234.105 546.301 234.957L546.444 235.276C542.652 239.273 523.244 242.134 519.863 246.023C518.19 248.106 498.612 256.422 494.645 257.637C496.956 255.89 517.132 243.175 518.53 243.102Z"/>
	<path fill="white" transform="scale(0.078125 0.078125)" d="M213.776 515.343L213.837 514.847C218.161 513.826 226.737 516.116 231.145 517.309L231.203 517.52L231.169 517.556C209.034 516.597 200.34 538.349 186.101 533.884C195.971 528.327 204.162 520.67 213.776 515.343Z"/>
	<path fill="white" transform="scale(0.078125 0.078125)" d="M306.135 523.623C310.899 522.937 319.761 522.744 324.205 524.355C302.873 525.802 294.212 544.109 270.436 546.269C282.889 539.38 292.863 529.185 306.135 523.623Z"/>
	<path fill="white" transform="scale(0.078125 0.078125)" d="M378.77 521.735C382.527 520.533 398.59 519.772 402.805 520.12L403.061 520.518C379.55 523.522 371.008 544.968 337.098 547.602C350.808 539.926 365.244 527.974 378.77 521.735Z"/>
	<path fill="white" transform="scale(0.078125 0.078125)" d="M335.335 524.195C341.31 521.584 358.485 517.817 363.287 521.573C355.137 524.024 346.994 526.619 339.515 530.756C317.68 542.837 321.654 544.903 296.872 548.088C310.106 540.824 321.632 530.481 335.335 524.195Z"/>
	<path fill="white" transform="scale(0.078125 0.078125)" d="M453.647 513.843C477.348 501.504 493.257 496.448 507.948 469.973C509.205 467.706 509.888 465.23 511.385 463.058L511.662 463.174C508.982 483.849 482.331 502.864 466.859 513.932C449.826 526.118 439.632 535.643 418.782 538.993C432.063 532.667 441.894 522.368 453.647 513.843Z"/>
	<path fill="white" transform="scale(0.078125 0.078125)" d="M238.651 518.984C242.344 518.442 262.364 520.978 266.69 521.84C270.144 521.928 273.664 522.386 277.106 522.318C286.332 522.145 295.557 521.995 304.754 522.936L304.964 523.202L304.829 523.391C298.775 523.401 292.642 523.143 286.78 524.925C269.791 530.09 263.961 546.014 246.126 543.729C255.818 537.503 264.534 530.004 274.029 523.484C271.259 523.393 268.475 523.182 265.724 522.853C246.289 522.59 237.128 545.054 218.55 538.777C227.078 533.255 234.859 526.639 242.785 520.296L238.651 518.984Z"/>
	<path fill="#262626" transform="scale(0.078125 0.078125)" d="M322.856 175.24C331.099 176.02 339.34 176.178 347.499 177.719C389.419 185.641 427.11 210.717 449.109 247.368C492.055 318.914 460.247 406.496 388.45 442.838C364.086 455.17 337.972 462.236 310.578 459.523C289.749 457.46 260.525 446.417 242.459 434.556C240.728 433.446 238.908 432.443 237.136 431.398C215.318 412.233 206.819 407.593 190.779 379.269C152.204 311.151 183.499 231.537 249.373 194.426C261.444 187.625 298.842 171.937 313.09 175.916C316.411 176.149 319.555 175.369 322.856 175.24Z"/>
	<path fill="#D94452" transform="scale(0.078125 0.078125)" d="M315.74 180.77C350.352 180.58 384.096 192.811 409.63 216.434C469.325 271.662 475.845 347.843 418.713 409.263C396.01 433.67 359.85 453.53 326.569 454.748C257.04 455.689 187.708 389.948 184.398 321.096C180.995 250.319 245.941 183.97 315.74 180.77Z"/>
	<path fill="white" transform="scale(0.078125 0.078125)" d="M263.475 347.418C268.229 346.903 272.116 345.379 277.174 345.761C273.282 348.344 266.601 350.851 261.908 349.727L261.595 349.069C262.153 348.275 262.668 347.909 263.475 347.418Z"/>
	<path fill="white" transform="scale(0.078125 0.078125)" d="M352.216 272.269C359.478 267.584 367.107 262.088 374.973 258.546C370.857 262.904 358.524 271.772 352.143 273.448L352.216 272.269Z"/>
	<path fill="white" transform="scale(0.078125 0.078125)" d="M258.34 254.649C265.488 256.685 275.672 265.152 278.792 271.863C274.701 270.268 260.854 258.306 258.34 254.649Z"/>
	<path fill="#262626" transform="scale(0.078125 0.078125)" d="M293.794 288.841C289.418 277.121 286.646 237.569 295.818 228.749C302.705 222.125 341.09 222.926 346.505 228.585C353.715 236.121 352.242 261.971 352.216 272.269L352.143 273.448C350.815 278.465 350.942 284.214 350.168 289.383C364.392 288.03 401.002 282.508 412.005 291.68C419.792 298.172 418.786 309.811 418.781 318.936C418.772 336.073 417.527 347.293 397.35 348.566C380.611 349.622 362.944 346.593 347.673 347.852C349.323 361.572 354.013 396.004 346.028 406.611C339.333 415.503 310.462 414.516 301.836 412.752C281.434 408.578 289.723 357.797 294.4 345.31C290.101 345.177 280.595 347.079 277.174 345.761C272.116 345.379 268.229 346.903 263.475 347.418C252.144 345.706 229.77 353.631 225.658 335.002C223.491 325.181 222.303 298.161 232.355 290.81C243.157 282.909 280.551 286.971 293.794 288.841Z"/>
	<path fill="white" transform="scale(0.078125 0.078125)" d="M304.787 232.309C316.269 232.982 327.68 232.515 339.166 232.573C346.459 240.518 344.182 270.999 342.932 280.78C340.478 299.985 334.552 296.073 363.453 294.163C370.816 293.676 400.25 291.51 405.787 295.795C410.981 299.815 408.84 311.364 408.843 317.114C408.847 324.662 413.345 339.603 402.001 340.969C396.035 341.687 389.089 340.413 382.971 340.388C368.156 340.326 353.584 340.801 338.803 341.683C340.947 356.859 347.456 390.351 340.639 402.042C335.972 408.345 308.959 406.824 303.75 404.673C297.65 396.902 299.925 385.058 299.949 375.905C299.982 363.066 300.908 354.687 301.689 342.469C288.078 340.507 265.916 340.842 251.257 340.464C229.245 339.898 234.781 337.741 234.67 316.592C234.563 296.124 230.018 294.578 252.529 294.785L285.131 294.824C290.691 294.872 296.875 295.889 302.334 294.82L302.793 294.728C301.769 281.823 296.485 240.641 301.603 233.792C302.446 232.664 303.459 232.476 304.787 232.309Z"/>
</svg>
