<?xml version="1.0" encoding="utf-8" ?>
<svg xmlns="http://www.w3.org/2000/svg" width="29" height="29">
    <path fill="#FA9495" transform="scale(0.0467512 0.0467512)" d="M334.651 551.619C335.921 550.407 337.769 550.01 339.399 549.491L339.682 549.921L340.824 550.087L340.044 550.849L340.369 551.22C341.823 551.285 343.3 551.071 344.734 551.271C341.551 551.83 337.883 551.806 334.651 551.619Z"/>
    <path fill="#F6787C" transform="scale(0.0467512 0.0467512)" d="M340.824 550.087C343.975 549.128 348.667 549.496 352.016 549.621C349.653 550.404 347.248 551.226 344.734 551.271C343.3 551.071 341.823 551.285 340.369 551.22L340.044 550.849L340.824 550.087Z"/>
    <path fill="#D94452" transform="scale(0.0467512 0.0467512)" d="M222.656 123.899C228.662 120.422 234.164 116.137 240.231 112.695C265.02 98.6272 281.643 93.9195 307.873 86.7875C295.04 97.2664 250.42 122.022 245.727 130.362L246.26 129.925L246.357 130.066C269.406 117.102 308.543 86.5118 334.428 87.7639C332.989 88.4857 331.604 89.1958 330.275 90.1143L330.561 90.058C331.259 89.9164 331.815 89.7962 332.437 89.4239L333.098 89.5865L333.328 90.0443C332.991 90.9545 332.059 91.4931 331.9 92.3362C346.298 86.9606 355.988 84.2421 372.454 90.5421C363.658 93.3049 348.51 104.323 339.843 109.526C343.866 108.19 347.6 106.25 351.518 104.665C356.557 101.93 361.876 99.5507 366.997 96.9572C369.815 95.2021 372.094 93.3798 374.347 90.9412C386.76 90.8559 401.64 96.167 413.182 101.042C496.691 136.308 556.929 224.874 557.428 315.627C557.936 407.884 492.566 509.013 404.436 540.763C400.634 542.132 396.908 542.124 393.882 545.04L393.498 545.405C392.893 545.987 393.637 543.057 393.712 542.636C384.823 545.249 367.956 549.569 359.8 549.591C358.47 550.178 358.675 548.478 358.846 547.661L360.049 546.198L359.202 546.18C358.366 546.983 358.331 547.6 358.02 548.7C356.727 548.205 357.24 546.081 355.499 546.292L355.426 546.676C354.505 551.277 347.012 548.944 342.98 548.935L342.811 548.284L339.399 549.491C337.769 550.01 335.921 550.407 334.651 551.619C328.019 552.519 321.176 552.364 314.495 552.167C308.563 552.69 301.786 553.034 295.882 552.207C232.799 549.27 169.89 510.983 131.744 461.907C79.2083 394.32 69.819 299.42 105.761 222.056C131.629 166.377 183.625 117.49 241.568 96.2721C240.564 98.0306 239.546 99.5074 238.14 100.962L237.671 102.804C238.892 103.061 242.999 99.9379 242.538 102.588C246.831 100.49 273.306 89.7007 277.584 90.4758C273.168 93.4726 267.12 95.0664 262.254 97.3839C253.987 101.321 228.822 116.765 222.656 123.899ZM154.738 297.436C135.888 306.086 118.424 318.754 100.559 326.776C100.652 329.6 100.695 332.616 101.239 335.39C104.059 333.957 106.669 331.781 109.226 329.915L154.738 297.436ZM137.139 400.64L132.558 403.008C128.92 405.213 125.411 407.621 121.881 409.993C122.481 411.858 123.137 413.437 124.193 415.107C128.899 412.249 133.572 409.31 138.432 406.718C152.73 396.393 165.965 388.472 180.482 376.82L180.428 376.527C175.397 378.261 159.93 389.08 154.323 392.401C148.768 395.691 142.969 397.96 137.139 400.64ZM128.794 384.161L117.058 392.013C114.547 393.899 115.588 397.592 117.813 398.489C120.867 398.319 127.15 393.305 130.007 391.516C131.977 389.921 134.152 388.499 136.213 387.015C141.036 382.871 146.37 379.433 151.303 375.449L151.271 375.077C150.081 375.326 149.378 376.783 148.281 376.799L148.488 376.145C149.958 374.998 151.459 374.344 151.123 372.256L128.794 384.161ZM119.42 354.771C115.138 357.544 108.927 359.766 105.335 362.423C105.817 364.375 106.164 367.041 107.091 368.796C113.133 366.22 118.598 361.248 124.33 357.941C125.828 356.027 142.812 345.131 147.036 342.012L146.204 341.697C146.31 341.069 146.175 340.647 145.956 340.077C137.073 344.904 128.341 349.999 119.42 354.771ZM102.332 345.879C102.581 348.026 102.711 350.27 103.592 352.272C106.494 350.323 109.29 348.203 112.097 346.12C114.284 343.875 117.503 341.936 120.07 340.043L139.361 325.981C138.89 325.343 138.455 325.307 137.737 325.03C135.964 325.909 102.546 345.429 102.332 345.879ZM124.964 368.516C121.097 370.835 111.591 375.219 109.054 377.636C109.567 379.308 109.981 381.481 110.977 382.905C115.214 380.287 119.259 377.259 123.603 374.836C124.933 373.195 139.41 364.374 142.665 361.765C142.358 360.945 142.027 360.445 141.495 359.767C135.963 362.617 130.526 365.753 124.964 368.516ZM541.956 340.156C536.43 343.251 532.109 348.018 526.943 351.641C529.553 352.797 532.061 350.107 533.118 351.579C535.72 350.001 538.366 348.532 541.039 347.082C541.945 345.353 542.099 342.03 541.956 340.156Z"/>
    <path fill="#DCA8BC" transform="scale(0.0467512 0.0467512)" d="M281.154 511.143C282.179 512.188 283.415 512.123 284.482 513.077C283.467 513.694 282.42 514.454 281.346 514.948C281.389 513.637 281.371 512.439 281.154 511.143Z"/>
    <path fill="white" transform="scale(0.0467512 0.0467512)" d="M137.737 325.03C140.213 323.551 142.887 322.465 145.529 321.32C143.524 322.91 141.54 324.637 139.361 325.981C138.89 325.343 138.455 325.307 137.737 325.03Z"/>
    <path fill="#993438" transform="scale(0.0467512 0.0467512)" d="M464.946 220.576C467.919 218.634 471.185 217.068 474.375 215.516C475.361 220.81 479.508 222.259 476.703 222.067C475.053 220.529 474.308 216.171 471.295 217.708C469.303 218.724 467.139 220.286 465.095 221.027L464.946 220.576Z"/>
    <path fill="#993438" transform="scale(0.0467512 0.0467512)" d="M398.454 134.885C399.539 137.316 397.753 139.326 396.755 141.539C396.695 142.3 396.633 142.912 396.383 143.641L396.001 143.467C395.57 141.228 396.608 139.23 398.013 137.547L397.596 136.347C396.039 136.361 393.25 138.473 391.682 139.16L391.204 138.901C393.674 137.663 396.057 136.258 398.454 134.885Z"/>
    <path fill="#DA808C" transform="scale(0.0467512 0.0467512)" d="M288.366 526.058L289.023 525.201C289.589 526.093 289.356 527.174 290.816 526.392L291.159 525.461C292.466 525.565 293.805 527.108 294.697 527.993C293.891 528.694 293.102 529.476 292.197 530.043C291.806 529.062 291.271 528.101 290.81 527.148L286.891 529.882L287.102 529.565C287.873 528.395 288.659 527.487 288.366 526.058Z"/>
    <path fill="white" transform="scale(0.0467512 0.0467512)" d="M237.671 102.804C238.892 103.061 242.999 99.9379 242.538 102.588C238.476 104.885 234.879 107.85 230.866 110.195C233.704 106.326 235.086 108.46 237.533 103.102L237.671 102.804Z"/>
    <path fill="#F6787C" transform="scale(0.0467512 0.0467512)" d="M169.436 149.263L170.436 150.022C167.665 152.832 164.284 156.513 160.777 158.297L159.88 158.047C162.959 154.994 166.02 151.945 169.436 149.263Z"/>
    <path fill="white" transform="scale(0.0467512 0.0467512)" d="M155.431 352.339C151.57 355.847 146.905 358.711 142.665 361.765C142.358 360.945 142.027 360.445 141.495 359.767C146.171 357.356 150.894 355.004 155.431 352.339Z"/>
    <path fill="#993438" transform="scale(0.0467512 0.0467512)" d="M189.733 459.859C190.956 459.848 192.73 461.265 193.784 461.915C194.118 462.892 194.63 463.887 194.338 464.922L193.809 465.54C192.695 466.26 191.578 466.926 190.406 467.548C190.17 464.765 191.803 462.038 189.733 459.859Z"/>
    <path fill="#DA808C" transform="scale(0.0467512 0.0467512)" d="M199.381 462.537C200.946 461.814 202.496 461.026 204.151 460.533C203.34 462.653 202.454 464.753 202.015 466.988C200.347 467.646 198.677 468.365 196.982 468.947C198.567 466.809 199.809 465.748 198.477 463.147L199.381 462.537Z"/>
    <path fill="white" transform="scale(0.0467512 0.0467512)" d="M145.956 340.077C148.943 338.223 153.444 334.803 156.894 334.369L157.24 334.639C156.306 336.697 149.357 340.79 147.036 342.012L146.204 341.697C146.31 341.069 146.175 340.647 145.956 340.077Z"/>
    <path fill="#993438" transform="scale(0.0467512 0.0467512)" d="M142.42 441.869C144.322 439.607 147.355 437.596 149.857 436.032C149.603 437.439 146.545 439.509 145.127 440.09L145.246 440.487C146.085 440.908 150.395 443.051 150.486 443.044L151.563 442.086L151.907 442.271L151.93 442.587C151.46 442.962 150.914 443.535 150.342 443.71C149.68 444.195 148.723 445.372 148.09 445.655C146.88 444.206 144.09 442.804 142.42 441.869Z"/>
    <path fill="#DA808C" transform="scale(0.0467512 0.0467512)" d="M426.727 164.703C427.737 164.987 428.672 165.101 429.717 165.183L426.422 167.725C421.828 169.937 417.866 173.651 413.401 176.164C416.81 172.771 422.455 166.608 426.727 164.703Z"/>
    <path fill="#993438" transform="scale(0.0467512 0.0467512)" d="M526.873 404.5C525.736 408.383 524.793 412.596 523.251 416.329C522.713 416.533 522.277 416.711 521.783 417.014L521.269 416.894C522.214 414.358 525.303 415.744 522.097 412.307L522.139 411.966L523.14 411.943L523.034 411.142L523.237 411.802C521.913 407.655 519.358 410.388 516.689 411.295L516.509 410.888C520.088 408.914 523.509 406.816 526.873 404.5Z"/>
    <path fill="#993438" transform="scale(0.0467512 0.0467512)" d="M174.995 454.089C178.466 452.967 177.369 448.772 179.093 446.611L179.492 446.881C180.078 448.611 179.128 452.029 178.188 453.515L178.606 453.562L178.075 453.98C178.507 454.021 179.947 452.971 180.484 452.76L180.686 453.158C177.806 454.908 174.755 456.64 172.188 458.832C171.03 459.656 169.524 460.49 168.537 461.49L167.971 461.564C169.14 459.413 172.913 455.438 174.995 454.089Z"/>
    <path fill="white" transform="scale(0.0467512 0.0467512)" d="M167.652 363.608C162.255 367.571 156.917 371.811 151.303 375.449L151.271 375.077C150.081 375.326 149.378 376.783 148.281 376.799L148.488 376.145C149.958 374.998 151.459 374.344 151.123 372.256C156.197 368.757 162.062 366.167 167.652 363.608Z"/>
    <path fill="#993438" transform="scale(0.0467512 0.0467512)" d="M240.745 500.811L241.268 501.021C240.446 501.89 236.786 504.211 236.748 505.07C239.62 505.772 245.575 502.813 245.423 506.064L244.503 507.167L244.579 507.681C245.973 508.214 248.581 509.993 249.854 508.877L250.062 509.447C247.74 511.16 245.27 512.603 242.792 514.073C246.174 506.531 241.13 511.086 244.554 505.802C243.301 505.094 236.639 505.902 234.673 505.782L234.147 505.748L240.745 500.811Z"/>
    <path fill="#993438" transform="scale(0.0467512 0.0467512)" d="M529.317 325.92C533.163 323.858 537.404 322.307 541.397 320.525L541.59 326.008C538.845 327.371 535.168 328.698 533.934 331.723L533.618 331.587C532.446 330.781 533.859 330.67 534.318 329.884C534.752 329.143 533.055 327.344 532.774 326.451L533.276 326.233C534.429 326.788 534.331 327.883 535.462 328.49L536.342 328.131C537.672 326.054 535.941 322.997 533.471 324.582C532.241 325.371 530.897 325.78 529.527 326.268L529.317 325.92Z"/>
    <path fill="#993438" transform="scale(0.0467512 0.0467512)" d="M404.628 148.53C408.126 145.84 411.605 143.162 415.015 140.36C415.082 141.609 414.724 145.546 416.442 145.537C418.669 145.733 421.469 146.446 423.419 147.548C419.874 150.118 416.199 153.315 412.41 155.471L411.982 155.373C412.933 153.789 418.909 150.597 420.41 148.719L420.337 148.259C414.647 147.205 412.896 144.686 411.69 144.243C409.316 144.984 407.4 147.581 405.155 148.832L404.628 148.53Z"/>
    <path fill="#84363B" transform="scale(0.0467512 0.0467512)" d="M433.289 162.67C435.138 161.502 437.028 160.396 438.902 159.269C438.841 161.752 439.999 163.745 440.199 166.121L439.295 166.963C439.326 169.333 442.953 168.833 444.42 170.104C441.512 172.07 438.545 174.401 435.482 176.085L434.875 175.888C437.43 174.182 440.046 172.509 442.479 170.631C442.083 169.864 439.588 168.928 438.742 168.199C431.016 161.547 440.73 160.068 426.936 167.856L426.422 167.725L429.717 165.183C430.927 164.372 432.106 163.52 433.289 162.67Z"/>
    <path fill="#84363B" transform="scale(0.0467512 0.0467512)" d="M501.517 270.898C504.893 269.122 508.047 266.676 511.546 265.201L511.492 265.796C510.287 266.492 509.09 267.208 507.867 267.87C513.479 273.741 514.313 274.509 520.412 273.07L520.678 273.324C518.135 275.46 512.798 278.276 509.727 279.809L509.638 279.62C509.938 278.237 513.986 277.408 514.754 276.021C507.569 270.337 507.989 268.854 501.719 271.369L501.517 270.898Z"/>
    <path fill="#993438" transform="scale(0.0467512 0.0467512)" d="M359.426 106.429L360.455 106.091C360.469 106.907 358.856 107.895 358.569 108.861L358.733 109.228C361.356 109.511 361.746 113.179 364.754 110.767C365.735 109.979 366.833 109.165 368.168 109.297C366.282 111.265 356.772 116.86 353.862 118.591C354.176 116.997 357.292 116.062 358.439 114.834C356.501 108.519 352.582 112.932 351.375 113.054C353.026 109.933 357.221 109.164 359.426 106.429Z"/>
    <path fill="#763941" transform="scale(0.0467512 0.0467512)" d="M156.456 445.63C157.956 447.195 158.887 448.164 159.126 450.419C156.686 451.712 154.234 453.193 151.714 454.307C150.953 451.037 152.549 450.68 149.368 448.24C149.831 448.009 150.349 447.839 150.83 447.647C152.685 446.869 154.638 446.568 156.456 445.63Z"/>
    <path fill="#993438" transform="scale(0.0467512 0.0467512)" d="M429.472 148.569C430.179 149.616 430.776 150.64 431.314 151.783C433.965 152.828 436.955 153.469 439.763 153.944C436.927 156.329 434.125 158.798 431.208 161.082L433.289 162.67C432.106 163.52 430.927 164.372 429.717 165.183C428.672 165.101 427.737 164.987 426.727 164.703L427.636 163.633C427.949 161.89 435.8 157.145 437.462 154.997L437.154 154.544C423.211 151.857 434.086 146.831 417.659 156.909L417.108 156.655C420.529 153.586 425.547 151.052 429.472 148.569Z"/>
    <path fill="#F7B9B3" transform="scale(0.0467512 0.0467512)" d="M427.636 163.633C428.883 162.909 430.044 161.938 431.208 161.082L433.289 162.67C432.106 163.52 430.927 164.372 429.717 165.183C428.672 165.101 427.737 164.987 426.727 164.703L427.636 163.633Z"/>
    <path fill="#84363B" transform="scale(0.0467512 0.0467512)" d="M476.571 214.521C480.938 214.078 477.095 220.61 483.914 222.628C480.616 224.809 476.888 227.874 473.361 229.537L472.923 229.438C474.576 224.722 483.153 228.313 476.703 222.067C479.508 222.259 475.361 220.81 474.375 215.516C475.077 215.101 475.816 214.82 476.571 214.521Z"/>
    <path fill="#84363B" transform="scale(0.0467512 0.0467512)" d="M403.419 131.349C401.134 136.758 396.347 134.427 404.547 142.055C405.98 141.5 407.991 139.423 409.415 139.614C407.707 141.425 396.517 149.205 394.217 150.495C395.448 145.448 403.589 150.015 396.755 141.539C397.753 139.326 399.539 137.316 398.454 134.885C400.136 133.743 401.775 132.544 403.419 131.349Z"/>
    <path fill="white" transform="scale(0.0467512 0.0467512)" d="M498.846 456.52L499.165 456.666C497.78 458.932 489.551 464.228 486.792 466.346L472.295 477.459C465.754 482.392 461.601 487.043 456.201 491.384L455.834 491.205L455.77 490.746C462.735 481.333 488.917 462.539 498.846 456.52Z"/>
    <path fill="#993438" transform="scale(0.0467512 0.0467512)" d="M130.007 391.516C131.977 389.921 134.152 388.499 136.213 387.015C137.924 387.569 139.335 388.276 140.882 389.183L137.255 393.449C137.466 395.823 137.578 398.286 137.139 400.64L132.558 403.008C132.197 394.709 141.827 393.98 130.007 391.516Z"/>
    <path fill="white" transform="scale(0.0467512 0.0467512)" d="M514.654 374.793C520.567 370.414 533.913 360.163 539.923 356.976L540.349 357.221L540.541 358.481C540.218 360.286 540.01 361.065 538.618 362.287C531.898 366.75 522.117 371.636 514.654 374.793Z"/>
    <path fill="#84363B" transform="scale(0.0467512 0.0467512)" d="M368.493 117.365C370.36 121.51 378.964 120.944 382.802 122.078L367.939 132.492C369.009 129.628 377.786 125.971 378.683 123.903L378.258 124.19L378.775 124.087L378.76 123.792C374.848 121.446 368.332 124.041 363.854 123.017L363.58 122.522L364.025 122.285C364.533 122.365 365.042 122.433 365.55 122.504L365.733 122.078C364.29 117.802 359.342 124.392 356.299 124.218C360.087 121.667 364.495 119.614 368.493 117.365Z"/>
    <path fill="white" transform="scale(0.0467512 0.0467512)" d="M143.457 215.752C135.877 221.837 117.192 237.98 115.076 235.636L116.416 232.91C122.603 230.534 134.234 219.898 143.457 215.752Z"/>
    <path fill="white" transform="scale(0.0467512 0.0467512)" d="M401.54 128.919C403.211 128.442 404.94 127.405 406.513 126.64L407.82 127.72C406.345 128.909 404.811 130.065 403.419 131.349C401.775 132.544 400.136 133.743 398.454 134.885C396.057 136.258 393.674 137.663 391.204 138.901C389.03 139.623 386.987 139.955 384.721 140.183L389.533 136.39C393.431 133.706 397.467 131.32 401.54 128.919Z"/>
    <path fill="#993438" transform="scale(0.0467512 0.0467512)" d="M300.556 529.091C302.101 528.318 303.575 527.478 305.056 526.59L305.3 526.804C304.665 527.224 304.031 527.642 303.387 528.049L303.416 528.308C312.481 528.381 308.552 528.869 309.297 534.624L310.938 533.701L311.388 533.965C306.579 536.751 301.388 539.439 296.187 541.4C297.128 539.752 301.26 535.523 302.783 533.902C304.675 531.549 302.392 530.445 300.556 529.091Z"/>
    <path fill="#84363B" transform="scale(0.0467512 0.0467512)" d="M456.293 189.295L463.375 185.328L464.471 185.588L464.672 186.017C465.529 187.805 466.513 188.681 468.035 189.852L467.068 190.557C467.455 191.165 469.606 191.726 470.362 192.018L469.9 192.023C470.699 192.549 471.403 193.097 472.368 193.258L473.465 192.976C471.769 194.297 469.877 195.692 467.986 196.711C466.716 196.443 469.472 195.149 469.95 194.775C469.644 194.253 466.37 193.13 465.399 192.876L465.214 193.413C459.764 194.207 460.161 193.153 456.293 189.295Z"/>
    <path fill="#F7B9B3" transform="scale(0.0467512 0.0467512)" d="M533.618 331.587L533.934 331.723L535.178 332.449C535.255 333.185 535.225 333.121 534.958 333.735L533.441 334.465C521.466 339.065 510.191 345.631 498.325 350.616C504.941 345.824 526.006 334.025 533.618 331.587Z"/>
    <path fill="white" transform="scale(0.0467512 0.0467512)" d="M330.275 90.1143L330.561 90.058C331.259 89.9164 331.815 89.7962 332.437 89.4239L333.098 89.5865L333.328 90.0443C332.991 90.9545 332.059 91.4931 331.9 92.3362C320.184 98.652 308.133 103.824 296.852 111.089C294.052 112.893 291.372 115.099 288.258 116.327C295.881 109.904 320.093 94.4036 330.275 90.1143Z"/>
    <path fill="#84363B" transform="scale(0.0467512 0.0467512)" d="M145.632 420.827C149.384 418.287 153.21 415.888 156.915 413.272C157.653 416.434 162.483 414.603 164.098 417.405L164.025 417.769C162.611 417.198 160.446 414.633 158.999 416.455L159.166 416.99C159.6 418.406 159.646 421.839 160.479 422.545L160.043 422.653L160.271 423.044C161.693 422.456 162.883 421.508 164.345 420.914L164.423 421.378C158.845 424.521 153.161 427.491 147.521 430.522C148.683 428.264 151.341 428.179 153.215 426.834L154.317 426.031C154.225 423.775 154.318 420.08 152.762 418.363C150.235 417.55 148.198 420.61 145.632 420.827Z"/>
    <path fill="#993438" transform="scale(0.0467512 0.0467512)" d="M112.097 346.12L112.294 346.595C111.294 347.854 108.987 348.441 108.319 349.812C110.352 350.728 112.369 350.486 114.292 351.34L114.228 351.597C113.16 351.755 112.097 351.879 111.021 351.975L111.564 352.313L111.671 352.74C113.461 359.626 113.204 357.515 118.96 354.341L119.386 354.439L119.42 354.771C115.138 357.544 108.927 359.766 105.335 362.423C104.976 358.962 104.462 355.647 103.592 352.272C106.494 350.323 109.29 348.203 112.097 346.12Z"/>
    <path fill="#84363B" transform="scale(0.0467512 0.0467512)" d="M477.449 232.352C480.131 230.048 489.342 224.531 492.817 222.597C491.366 225.867 481.502 226.667 490.051 231.444C492.858 230.394 497.285 228.311 499.613 230.974C501.006 230.879 501.6 229.903 503.137 229.865C498.576 232.757 494.03 235.751 489.429 238.569L489.318 238.062C494.579 233.96 495.308 235.543 489.43 233.408C488.056 233.754 479.369 238.637 479.132 234.627L479.932 234.581C481.81 235.784 482.748 235.283 484.67 234.26L484.56 233.627C481.475 229.995 481.376 230.112 477.568 232.967L477.449 232.352Z"/>
    <path fill="#84363B" transform="scale(0.0467512 0.0467512)" d="M515.883 280.899C522.183 277.223 528.716 273.771 535.399 270.845C535.904 273.885 536.787 276.847 537.296 279.867C533.127 282.194 528.835 284.788 524.497 286.768C524.956 285.378 529.818 283.36 531.329 282.435C530.797 281.368 528.894 280.674 528.075 279.588C523.606 273.659 521.713 279.714 516.081 281.327L515.883 280.899Z"/>
    <path fill="#84363B" transform="scale(0.0467512 0.0467512)" d="M124.33 357.941L124.412 358.578C110.88 367.785 117.859 361.12 117.291 372.058C119.803 371.723 122.262 368.756 124.855 368.023L124.964 368.516C121.097 370.835 111.591 375.219 109.054 377.636C108.642 374.604 108.287 371.639 107.091 368.796C113.133 366.22 118.598 361.248 124.33 357.941Z"/>
    <defs>
        <linearGradient id="gradient_0" gradientUnits="userSpaceOnUse" x1="192.42197" y1="444.05649" x2="175.52939" y2="461.43463">
            <stop offset="0" stop-color="#CC6A73"/>
            <stop offset="1" stop-color="#F2979E"/>
        </linearGradient>
    </defs>
    <path fill="url(#gradient_0)" transform="scale(0.0467512 0.0467512)" d="M180.686 453.158C186.603 449.845 192.484 447.09 198.708 444.409C192.796 449.714 184.081 455.115 179.099 460.059C178.043 460.798 176.927 461.5 175.967 462.361L175.558 462.452C175.029 461.159 173.255 459.739 172.188 458.832C174.755 456.64 177.806 454.908 180.686 453.158Z"/>
    <path fill="#FA9495" transform="scale(0.0467512 0.0467512)" d="M139.266 184.354C147.297 182.959 186.655 142.358 198.803 139.214C188.676 148.627 173.287 160.062 162.304 168.894C153.653 175.851 142.344 183.942 135.181 192.265C134.906 192.586 134.99 192.478 134.527 192.713C135.919 189.878 137.706 187.112 139.266 184.354Z"/>
    <path fill="#84363B" transform="scale(0.0467512 0.0467512)" d="M435.882 183.359C442.103 178.706 451.932 173.115 458.811 169.186C458.039 170.681 452.998 172.947 453.151 173.706C453.77 176.764 458.915 178.49 461.346 179.968C463.748 179.474 465.397 177.375 467.821 177.052C461.199 181.93 453.757 186.317 446.695 190.534C447.246 188.48 453.267 186.008 455.114 184.72C453.298 182.184 447.959 181.692 446.495 178.785C445.487 176.783 437.99 182.897 436.085 183.815L435.882 183.359Z"/>
    <path fill="#84363B" transform="scale(0.0467512 0.0467512)" d="M110.977 382.905C115.214 380.287 119.259 377.259 123.603 374.836C122.676 376.889 119.387 377.409 118.335 379.233C127.209 380.066 121.17 388.116 128.479 383.658L128.778 383.908L128.794 384.161L117.058 392.013C114.754 391.129 112.266 385.079 110.977 382.905Z"/>
    <path fill="white" transform="scale(0.0467512 0.0467512)" d="M539.808 294.919L540.409 299.412C528.941 304.892 507.537 318.785 497.584 321.955C505.723 314.273 528.323 301.427 539.808 294.919Z"/>
    <path fill="white" transform="scale(0.0467512 0.0467512)" d="M521.783 417.014C522.277 416.711 522.713 416.533 523.251 416.329C522.657 417.969 521.851 419.712 521.428 421.393C515.596 426.062 482.823 447.083 476.401 449.059C487.839 437.268 508.688 429.641 521.783 417.014Z"/>
    <path fill="white" transform="scale(0.0467512 0.0467512)" d="M535.921 375.126C535.5 377.073 535.056 379.001 534.531 380.923C525.092 383.444 501.017 399.949 489.694 405.155C501.627 395.116 522.149 383.083 535.921 375.126Z"/>
    <path fill="#84363B" transform="scale(0.0467512 0.0467512)" d="M209.451 484.009C213.526 481.163 217.5 478.027 221.741 475.447L221.666 476.104C210.88 484.639 224.494 475.121 229.258 484.588C224.224 486.592 219.377 489.124 214.917 492.211C214.382 487.022 213.254 486.499 209.451 484.009Z"/>
    <path fill="white" transform="scale(0.0467512 0.0467512)" d="M526.943 351.641C529.553 352.797 532.061 350.107 533.118 351.579C517.105 361.758 501.439 372.426 485.456 382.456C480.684 385.451 476.18 388.82 470.871 390.803C474.064 388.183 477.815 386.092 481.163 383.635C495.931 372.797 511.825 362.358 526.943 351.641Z"/>
    <path fill="white" transform="scale(0.0467512 0.0467512)" d="M502.536 266.465C511.432 261.909 523.239 250.397 528.309 248.157C529.094 249.991 529.928 251.812 530.548 253.709C529.109 254.684 527.665 255.651 526.253 256.664C521.335 259.343 516.228 262.136 511.546 265.201C508.047 266.676 504.893 269.122 501.517 270.898C498.318 272.325 495.07 273.633 491.827 274.956C495.133 271.805 499.446 269.627 502.536 266.465Z"/>
    <path fill="white" transform="scale(0.0467512 0.0467512)" d="M404.401 514.273C397.743 520.712 369.144 541.169 360.049 546.198L359.202 546.18C358.366 546.983 358.331 547.6 358.02 548.7C356.727 548.205 357.24 546.081 355.499 546.292L355.426 546.676C354.505 551.277 347.012 548.944 342.98 548.935L342.811 548.284C367.987 538.947 382.557 526.201 404.401 514.273Z"/>
    <path fill="white" transform="scale(0.0467512 0.0467512)" d="M155.972 232.497C145.654 241.605 133.619 247.965 122.409 255.806C116.148 260.185 110.653 265.706 104.173 269.698C105.01 267.227 105.995 264.88 107.078 262.507C116.598 252.131 142.24 240.383 155.972 232.497Z"/>
    <path fill="white" transform="scale(0.0467512 0.0467512)" d="M172.452 400.603C167.571 405.121 162.07 409.064 156.915 413.272C153.21 415.888 149.384 418.287 145.632 420.827C142.088 422.142 135.892 426.293 131.9 428.176L129.944 425.087C134.629 420.442 141.426 416.429 147.145 413.142C155.672 408.96 164.26 405.501 172.452 400.603Z"/>
    <path fill="white" transform="scale(0.0467512 0.0467512)" d="M204.948 424.329C199.686 429.737 190.704 434.176 184.697 439.215C178.213 442.566 160.652 456.477 155.665 457.454L155.068 458.338C153.796 458.597 152.633 459.475 151.534 460.144C148.549 457.324 147.518 456.15 151.714 454.307C154.234 453.193 156.686 451.712 159.126 450.419C165.908 447.131 172.193 442.882 178.924 439.501C181.491 437.095 200.243 427.202 204.948 424.329Z"/>
    <path fill="white" transform="scale(0.0467512 0.0467512)" d="M102.143 284.178C115.673 275.538 129.326 267.119 142.463 257.87C148.162 253.859 153.389 248.656 159.148 244.898C144.846 260.774 132.224 268.811 114.878 280.186C113.113 281.343 102.148 289.987 101.354 287.253C101.462 286.176 101.808 285.203 102.143 284.178Z"/>
    <path fill="white" transform="scale(0.0467512 0.0467512)" d="M537.296 279.867L538.278 285.707C517.117 292.91 500.916 306.367 481.38 314.135C485.008 310.699 489.72 308.376 493.926 305.73C496.873 303.877 523.326 288.092 524.497 286.768C528.835 284.788 533.127 282.194 537.296 279.867Z"/>
    <path fill="white" transform="scale(0.0467512 0.0467512)" d="M402.48 532.343L402.556 532.935C399.441 535.075 396.15 537.047 392.672 538.536C393.638 538.967 394.266 539.145 395.328 539.14C394.693 540.29 394.099 541.371 393.712 542.636C384.823 545.249 367.956 549.569 359.8 549.591C358.47 550.178 358.675 548.478 358.846 547.661C360.599 547.656 397.059 534.015 402.48 532.343Z"/>
    <defs>
        <linearGradient id="gradient_1" gradientUnits="userSpaceOnUse" x1="393.6615" y1="541.99908" x2="365.92563" y2="545.68274">
            <stop offset="0" stop-color="#8D2C2E"/>
            <stop offset="1" stop-color="#D04543"/>
        </linearGradient>
    </defs>
    <path fill="url(#gradient_1)" transform="scale(0.0467512 0.0467512)" d="M392.672 538.536C393.638 538.967 394.266 539.145 395.328 539.14C394.693 540.29 394.099 541.371 393.712 542.636C384.823 545.249 367.956 549.569 359.8 549.591L360.401 548.799C368.448 547.616 383.888 541.155 392.672 538.536Z"/>
    <defs>
        <linearGradient id="gradient_2" gradientUnits="userSpaceOnUse" x1="521.85431" y1="240.44356" x2="512.20129" y2="257.44208">
            <stop offset="0" stop-color="#5C2329"/>
            <stop offset="1" stop-color="#9E2C39"/>
        </linearGradient>
    </defs>
    <path fill="url(#gradient_2)" transform="scale(0.0467512 0.0467512)" d="M525.329 240.642C525.479 243.501 526.971 245.711 528.309 248.157C523.239 250.397 511.432 261.909 502.536 266.465C503.37 264.627 511.851 260.097 514.125 258.352C497.203 251.548 510.509 253.642 495.462 258.827L494.853 258.644L513.367 247.713C517.369 245.369 521.44 243.174 525.329 240.642Z"/>
    <path fill="#993438" transform="scale(0.0467512 0.0467512)" d="M207.998 464.739C212.337 463.027 230.035 456.79 233.489 458.56C235.76 459.724 234.15 460.92 233.784 462.374C225.286 467.441 216.992 471.765 208.64 477.268C209.032 471.01 212.992 469.832 207.998 464.739Z"/>
    <path fill="white" transform="scale(0.0467512 0.0467512)" d="M99.6883 306.413C108.73 303.508 115.995 296.999 124.104 292.253C132.478 287.352 141.241 282.958 149.748 278.271C137.907 289.201 121.265 298.055 108.054 308.889C105.441 311.032 102.828 313.597 99.9816 315.392C99.4247 312.491 99.6346 309.357 99.6883 306.413Z"/>
    <path fill="white" transform="scale(0.0467512 0.0467512)" d="M503.137 229.865C506.384 228.452 515.041 223.441 518.132 224.512C523.466 226.36 505.136 233.454 496.488 239.549C492.427 241.526 488.457 244.268 484.618 246.667C478.382 249.322 472.992 253.352 466.406 255.219C474.092 249.672 481.933 244.397 489.429 238.569C494.03 235.751 498.576 232.757 503.137 229.865Z"/>
    <path fill="white" transform="scale(0.0467512 0.0467512)" d="M311.388 533.965C319.907 529.861 332.872 521.394 341.004 518.724C328.843 529.826 306.039 544.822 290.52 547.228C288.923 547.24 287.455 546.929 285.901 546.607C289.001 544.412 292.743 542.975 296.187 541.4C301.388 539.439 306.579 536.751 311.388 533.965Z"/>
    <defs>
        <linearGradient id="gradient_3" gradientUnits="userSpaceOnUse" x1="206.35896" y1="118.83813" x2="212.19806" y2="125.79948">
            <stop offset="0" stop-color="#FFB6BB"/>
            <stop offset="1" stop-color="#FFEFF9"/>
        </linearGradient>
    </defs>
    <path fill="url(#gradient_3)" transform="scale(0.0467512 0.0467512)" d="M169.436 149.263C183.545 135.789 202.261 123.851 218.68 113.379C225.155 109.249 232.275 105.954 238.14 100.962L237.671 102.804L237.533 103.102C235.086 108.46 233.704 106.326 230.866 110.195C210.788 124.621 190.136 132.944 170.436 150.022L169.436 149.263Z"/>
    <path fill="white" transform="scale(0.0467512 0.0467512)" d="M309.091 550.261C312.047 548.54 315.346 547.396 318.463 545.995C339.243 536.66 358.964 518.19 379.662 509.662C371.796 517.382 354.937 527.704 345.588 533.846C335.406 540.535 324.46 550.207 311.731 550.766L309.091 550.261Z"/>
    <path fill="white" transform="scale(0.0467512 0.0467512)" d="M483.925 167.014C485.016 168.051 485.942 169.057 486.846 170.262C484.899 171.599 482.95 173.112 480.889 174.257C476.413 177.792 471.085 180.179 466.556 183.587C465.431 184.09 464.421 184.678 463.375 185.328L456.293 189.295C446.572 194.489 436.727 200.838 426.571 205.031C428.98 203.209 446.108 191.259 446.695 190.534C453.757 186.317 461.199 181.93 467.821 177.052C471.066 175.792 474.368 173.054 477.441 171.308C479.319 169.673 481.783 168.287 483.925 167.014Z"/>
    <path fill="white" transform="scale(0.0467512 0.0467512)" d="M463.451 441.296C470.432 436.799 476.744 431.533 483.489 426.728C495.838 417.93 516.556 404.106 529.798 397.243C529.155 399.743 528.654 402.533 526.873 404.5C523.509 406.816 520.088 408.914 516.509 410.888C505.244 415.969 469.305 440.268 463.451 441.296Z"/>
    <path fill="white" transform="scale(0.0467512 0.0467512)" d="M426.587 145.232C429.739 143.143 448.978 129.856 451.288 134.944C449.843 137.098 436.474 142.957 433.377 146.035C432.029 146.834 430.749 147.659 429.472 148.569C425.547 151.052 420.529 153.586 417.108 156.655C405.305 162.857 390.092 174.105 379.321 181.934C381.49 176.224 406.331 160.403 412.41 155.471C416.199 153.315 419.874 150.118 423.419 147.548C424.513 146.838 425.544 146.015 426.587 145.232Z"/>
    <path fill="white" transform="scale(0.0467512 0.0467512)" d="M265.646 465.846C259.876 471.179 245.383 481.105 238.509 484.775C230.85 488.716 223.661 493.022 216.424 497.683C213.5 499.643 196.89 510.834 194.259 507.212C194.593 505.798 211.138 495.181 214.917 492.211C219.377 489.124 224.224 486.592 229.258 484.588C245.31 478.951 251.812 472.927 265.646 465.846Z"/>
    <path fill="white" transform="scale(0.0467512 0.0467512)" d="M164.423 421.378C176.232 415.737 186.563 408.696 197.776 402.97C187.996 414.808 154.994 429.182 149.857 436.032C147.355 437.596 144.322 439.607 142.42 441.869L139.534 444.183C137.728 442.576 136.655 440.135 135.567 438.019C139.58 435.636 143.777 433.314 147.521 430.522C153.161 427.491 158.845 424.521 164.423 421.378Z"/>
    <path fill="white" transform="scale(0.0467512 0.0467512)" d="M405.612 108.418C416.41 110.442 399.811 116.625 393.973 121.423C390.199 123.512 381.066 128.672 377.795 131.398C364.195 138.162 352.849 147.999 340.136 154.804C347.917 146.735 362.128 139.266 367.939 132.492L382.802 122.078C384.22 121.296 385.539 120.47 386.871 119.551C395.385 115.666 398.588 112.55 405.612 108.418Z"/>
    <path fill="white" transform="scale(0.0467512 0.0467512)" d="M483.271 353.474C497.987 337.82 515.139 330.07 531.655 318.164C533.793 316.623 538.872 308.873 541.15 309.314C541.454 313.016 541.269 316.799 541.397 320.525C537.404 322.307 533.163 323.858 529.317 325.92C512.156 334.199 498.88 345.743 483.271 353.474Z"/>
    <path fill="white" transform="scale(0.0467512 0.0467512)" d="M520.678 273.324C525.254 271.358 529.526 268.091 533.808 265.535C534.853 267.227 535.213 268.884 535.399 270.845C528.716 273.771 522.183 277.223 515.883 280.899C502.608 287.276 489.523 295.511 477.741 304.316C471.362 309.083 464.059 315.838 457.352 319.518C464.563 310.953 484.487 295.428 493.415 289.66C498.561 286.335 504.164 283.61 509.21 280.166L509.727 279.809C512.798 278.276 518.135 275.46 520.678 273.324Z"/>
    <path fill="white" transform="scale(0.0467512 0.0467512)" d="M233.784 462.374L234.293 462.179C237.839 460.807 240.648 459.236 244.431 458.452C241.561 460.672 222.241 474.775 221.741 475.447C217.5 478.027 213.526 481.163 209.451 484.009L208.623 484.486C205.409 486.357 186.41 496.255 184.14 497.037L181.152 495.899C185.483 492.785 190.435 490.693 194.883 487.744C199.673 484.568 203.901 480.557 208.64 477.268C216.992 471.765 225.286 467.441 233.784 462.374Z"/>
    <path fill="white" transform="scale(0.0467512 0.0467512)" d="M409.415 139.614L409.74 139.424C415.049 136.279 427.433 125.637 432.357 125.026L433.047 125.285C432.973 127.379 417.763 137.983 415.015 140.36C411.605 143.162 408.126 145.84 404.628 148.53C395.185 154.605 385.645 161.271 376.715 168.073C369.381 173.66 360.595 181.71 352.392 185.668C360.404 177.792 371.908 167.997 380.53 160.998C383.351 158.708 392.491 152.764 394.217 150.495C396.517 149.205 407.707 141.425 409.415 139.614Z"/>
    <path fill="white" transform="scale(0.0467512 0.0467512)" d="M478.243 190.065C483.734 186.671 489.301 183.597 495.011 180.594C496.061 181.434 497.474 182.307 498.036 183.551C496.464 186.196 479.383 194.957 475.713 197.947C471.884 199.845 460.27 206.057 457.443 208.593C445.826 214.344 434.167 225.995 421.569 232.795C437.354 219.539 452.384 209.011 467.986 196.711C469.877 195.692 471.769 194.297 473.465 192.976C475.091 192.328 476.751 191.013 478.243 190.065Z"/>
    <path fill="white" transform="scale(0.0467512 0.0467512)" d="M511.454 208.318C512.533 209.806 513.618 211.245 514.416 212.909C507.493 215.095 498.371 217.615 492.817 222.597C489.342 224.531 480.131 230.048 477.449 232.352C461.149 240.441 447.512 255.763 433.347 263.151C443.641 251.971 461.361 238.98 473.361 229.537C476.888 227.874 480.616 224.809 483.914 222.628L492.172 217.955C498.631 214.724 504.808 211.194 511.454 208.318Z"/>
    <path fill="white" transform="scale(0.0467512 0.0467512)" d="M524.139 235.53C524.629 237.215 525.201 238.884 525.329 240.642C521.44 243.174 517.369 245.369 513.367 247.713L494.853 258.644C478.026 266.093 463.531 279.259 448.19 289.236C456.053 279.218 481.256 261.448 492.547 255.276C497.056 252.709 501.306 249.063 505.629 246.111C511.95 243.095 518.155 239.196 524.139 235.53Z"/>
    <path fill="white" transform="scale(0.0467512 0.0467512)" d="M213.674 161.59C208.717 167.756 166.258 192.78 156.395 198.771C142.694 207.092 133.96 211.455 121.363 222.219C123.177 217.446 125.359 212.977 127.972 208.594C131.837 205.97 136.44 204.048 140.6 201.901C158.889 192.456 176.992 182.48 194.856 172.26C201.061 168.711 207.125 164.457 213.674 161.59Z"/>
    <path fill="white" transform="scale(0.0467512 0.0467512)" d="M387.777 99.1015C390.757 99.9934 393.769 100.776 396.748 101.671C392.475 103.131 376.942 111.66 373.51 114.51C371.823 115.439 370.155 116.393 368.493 117.365C364.495 119.614 360.087 121.667 356.299 124.218C344.626 128.078 327.312 143.417 314.555 149.776C322.776 143.125 330.586 136.012 338.936 129.481C343.577 125.851 349.681 122.46 353.862 118.591C356.772 116.86 366.282 111.265 368.168 109.297C374.753 105.825 380.775 101.795 387.777 99.1015Z"/>
    <path fill="white" transform="scale(0.0467512 0.0467512)" d="M471.328 155.251C472.756 156.095 474.208 156.907 475.555 157.877C470.673 161.486 462.94 165.675 458.811 169.186C451.932 173.115 442.103 178.706 435.882 183.359C424.899 189.285 412.514 197.793 402.158 204.778C396.879 208.34 391.602 212.84 385.741 215.333C393.939 205.179 424.04 184.76 435.482 176.085C438.545 174.401 441.512 172.07 444.42 170.104C446.253 169.05 448.023 167.939 449.785 166.771C456.326 163.679 465.493 159.292 471.328 155.251Z"/>
    <path fill="#262626" transform="scale(0.0467512 0.0467512)" d="M374.347 90.9412C386.76 90.8559 401.64 96.167 413.182 101.042C496.691 136.308 556.929 224.874 557.428 315.627C557.936 407.884 492.566 509.013 404.436 540.763C400.634 542.132 396.908 542.124 393.882 545.04L393.498 545.405C392.893 545.987 393.637 543.057 393.712 542.636C394.099 541.371 394.693 540.29 395.328 539.14C394.266 539.145 393.638 538.967 392.672 538.536C396.15 537.047 399.441 535.075 402.556 532.935L402.48 532.343C405.208 530.149 409.199 528.192 412.665 525.355C412.773 525.923 411.92 526.963 411.605 527.485C414.417 527.477 417.265 525.486 419.934 526.755C423.691 525.433 427.59 522.947 431.049 520.973C461.197 503.767 486.23 485.513 503.842 455.109C507.404 448.959 520.454 427.334 521.428 421.393C521.851 419.712 522.657 417.969 523.251 416.329C524.793 412.596 525.736 408.383 526.873 404.5C528.654 402.533 529.155 399.743 529.798 397.243C531.654 392.014 533.397 386.351 534.531 380.923C535.056 379.001 535.5 377.073 535.921 375.126C536.097 371.036 537.588 366.277 538.618 362.287C540.01 361.065 540.218 360.286 540.541 358.481C540.767 354.672 540.668 350.937 541.039 347.082C541.945 345.353 542.099 342.03 541.956 340.156C541.491 338.257 541.583 336.384 541.613 334.445C538.938 335.06 536.1 335.17 533.441 334.465L534.958 333.735C535.225 333.121 535.255 333.185 535.178 332.449L533.934 331.723C535.168 328.698 538.845 327.371 541.59 326.008L541.397 320.525C541.269 316.799 541.454 313.016 541.15 309.314C541.344 306.075 540.835 302.624 540.409 299.412L539.808 294.919L538.278 285.707L537.296 279.867C536.787 276.847 535.904 273.885 535.399 270.845C535.213 268.884 534.853 267.227 533.808 265.535C529.526 268.091 525.254 271.358 520.678 273.324L520.412 273.07C514.313 274.509 513.479 273.741 507.867 267.87C509.09 267.208 510.287 266.492 511.492 265.796L511.546 265.201C516.228 262.136 521.335 259.343 526.253 256.664C527.665 255.651 529.109 254.684 530.548 253.709C529.928 251.812 529.094 249.991 528.309 248.157C526.971 245.711 525.479 243.501 525.329 240.642C525.201 238.884 524.629 237.215 524.139 235.53C518.155 239.196 511.95 243.095 505.629 246.111C501.306 249.063 497.056 252.709 492.547 255.276C488.604 250.44 490.197 244.015 485.17 246.958L484.618 246.667C488.457 244.268 492.427 241.526 496.488 239.549C505.136 233.454 523.466 226.36 518.132 224.512C515.041 223.441 506.384 228.452 503.137 229.865C501.6 229.903 501.006 230.879 499.613 230.974C497.285 228.311 492.858 230.394 490.051 231.444C481.502 226.667 491.366 225.867 492.817 222.597C498.371 217.615 507.493 215.095 514.416 212.909C513.618 211.245 512.533 209.806 511.454 208.318C504.808 211.194 498.631 214.724 492.172 217.955L483.914 222.628C477.095 220.61 480.938 214.078 476.571 214.521C475.816 214.82 475.077 215.101 474.375 215.516C471.185 217.068 467.919 218.634 464.946 220.576C459.299 223.188 454.229 226.921 448.551 229.475C454.702 223.676 462.224 219.491 468.518 213.915L468.448 213.778C468.565 213.086 469.698 212.693 470.167 212.044C468.361 211.243 459.227 213.868 463.858 210.213C458.87 208.499 463.985 205.889 457.601 209.089L457.443 208.593C460.27 206.057 471.884 199.845 475.713 197.947C479.383 194.957 496.464 186.196 498.036 183.551C497.474 182.307 496.061 181.434 495.011 180.594C489.301 183.597 483.734 186.671 478.243 190.065C476.751 191.013 475.091 192.328 473.465 192.976L472.368 193.258C471.403 193.097 470.699 192.549 469.9 192.023L470.362 192.018C469.606 191.726 467.455 191.165 467.068 190.557L468.035 189.852C466.513 188.681 465.529 187.805 464.672 186.017L464.471 185.588L463.375 185.328C464.421 184.678 465.431 184.09 466.556 183.587C471.085 180.179 476.413 177.792 480.889 174.257C482.95 173.112 484.899 171.599 486.846 170.262C485.942 169.057 485.016 168.051 483.925 167.014C481.783 168.287 479.319 169.673 477.441 171.308C474.368 173.054 471.066 175.792 467.821 177.052C465.397 177.375 463.748 179.474 461.346 179.968C458.915 178.49 453.77 176.764 453.151 173.706C452.998 172.947 458.039 170.681 458.811 169.186C462.94 165.675 470.673 161.486 475.555 157.877C474.208 156.907 472.756 156.095 471.328 155.251C465.493 159.292 456.326 163.679 449.785 166.771C448.023 167.939 446.253 169.05 444.42 170.104C442.953 168.833 439.326 169.333 439.295 166.963L440.199 166.121C439.999 163.745 438.841 161.752 438.902 159.269C437.028 160.396 435.138 161.502 433.289 162.67L431.208 161.082C434.125 158.798 436.927 156.329 439.763 153.944C436.955 153.469 433.965 152.828 431.314 151.783C430.776 150.64 430.179 149.616 429.472 148.569C430.749 147.659 432.029 146.834 433.377 146.035C436.474 142.957 449.843 137.098 451.288 134.944C448.978 129.856 429.739 143.143 426.587 145.232C425.544 146.015 424.513 146.838 423.419 147.548C421.469 146.446 418.669 145.733 416.442 145.537C414.724 145.546 415.082 141.609 415.015 140.36C417.763 137.983 432.973 127.379 433.047 125.285L432.357 125.026C427.433 125.637 415.049 136.279 409.74 139.424L409.415 139.614C407.991 139.423 405.98 141.5 404.547 142.055C396.347 134.427 401.134 136.758 403.419 131.349C404.811 130.065 406.345 128.909 407.82 127.72L406.513 126.64C404.94 127.405 403.211 128.442 401.54 128.919C397.467 131.32 393.431 133.706 389.533 136.39C388.395 136.157 391.255 134.563 391.71 133.925L391.163 133.285C381.408 131.104 390.154 125.56 378.283 131.681L377.795 131.398C381.066 128.672 390.199 123.512 393.973 121.423C399.811 116.625 416.41 110.442 405.612 108.418C398.588 112.55 395.385 115.666 386.871 119.551C385.539 120.47 384.22 121.296 382.802 122.078C378.964 120.944 370.36 121.51 368.493 117.365C370.155 116.393 371.823 115.439 373.51 114.51C376.942 111.66 392.475 103.131 396.748 101.671C393.769 100.776 390.757 99.9934 387.777 99.1015C380.775 101.795 374.753 105.825 368.168 109.297C366.833 109.165 365.735 109.979 364.754 110.767C361.746 113.179 361.356 109.511 358.733 109.228L358.569 108.861C358.856 107.895 360.469 106.907 360.455 106.091L359.426 106.429C358.684 105.92 358.154 103.754 357.677 102.816C355.931 101.864 353.698 104.506 351.709 105.049L351.518 104.665C356.557 101.93 361.876 99.5507 366.997 96.9572C369.815 95.2021 372.094 93.3798 374.347 90.9412Z"/>
    <path fill="#928A98" transform="scale(0.0467512 0.0467512)" d="M449.446 147.683C450.628 146.66 452.122 145.641 453.569 145.057L454.402 146.765C453.181 147.237 452.255 147.74 451.226 148.55L449.446 147.683Z"/>
    <path fill="#763941" transform="scale(0.0467512 0.0467512)" d="M416.442 145.537C419.332 144.645 423.536 145.204 426.587 145.232C425.544 146.015 424.513 146.838 423.419 147.548C421.469 146.446 418.669 145.733 416.442 145.537Z"/>
    <path fill="#DA808C" transform="scale(0.0467512 0.0467512)" d="M534.958 333.735C535.611 333.965 540.916 331.659 541.883 331.323L541.613 334.445C538.938 335.06 536.1 335.17 533.441 334.465L534.958 333.735Z"/>
    <path fill="white" transform="scale(0.0467512 0.0467512)" d="M457.82 141.889C458.93 142.69 459.914 143.477 460.854 144.474L454.402 146.765L453.569 145.057C454.973 143.997 456.365 142.876 457.82 141.889Z"/>
    <path fill="#F6787C" transform="scale(0.0467512 0.0467512)" d="M411.605 527.485C414.417 527.477 417.265 525.486 419.934 526.755C416.566 528.405 413.206 530.045 409.768 531.545C409.952 530.089 410.34 528.385 411.605 527.485Z"/>
    <path fill="#763941" transform="scale(0.0467512 0.0467512)" d="M440.199 166.121C443.33 166.426 446.72 166.115 449.785 166.771C448.023 167.939 446.253 169.05 444.42 170.104C442.953 168.833 439.326 169.333 439.295 166.963L440.199 166.121Z"/>
    <path fill="#D9D2DD" transform="scale(0.0467512 0.0467512)" d="M406.513 126.64C409.898 124.182 416.116 118.575 419.82 117.53L420.038 117.72C417.962 121.279 411.136 124.947 407.82 127.72L406.513 126.64Z"/>
    <path fill="#763941" transform="scale(0.0467512 0.0467512)" d="M429.472 148.569C430.749 147.659 432.029 146.834 433.377 146.035C432.718 147.58 431.399 148.305 431.402 150.155L431.75 150.798C436.841 150.462 437.636 149.966 443.433 151.114L439.763 153.944C436.955 153.469 433.965 152.828 431.314 151.783C430.776 150.64 430.179 149.616 429.472 148.569Z"/>
    <path fill="#84363B" transform="scale(0.0467512 0.0467512)" d="M484.618 246.667C488.457 244.268 492.427 241.526 496.488 239.549C495.287 242.688 489.123 242.235 489.588 246.195C491.145 259.462 500.859 246.927 505.629 246.111C501.306 249.063 497.056 252.709 492.547 255.276C488.604 250.44 490.197 244.015 485.17 246.958L484.618 246.667Z"/>
    <path fill="#763941" transform="scale(0.0467512 0.0467512)" d="M463.375 185.328C464.421 184.678 465.431 184.09 466.556 183.587C466.24 184.325 465.778 184.808 465.211 185.371C470.112 190.919 473.293 187.248 478.243 190.065C476.751 191.013 475.091 192.328 473.465 192.976L472.368 193.258C471.403 193.097 470.699 192.549 469.9 192.023L470.362 192.018C469.606 191.726 467.455 191.165 467.068 190.557L468.035 189.852C466.513 188.681 465.529 187.805 464.672 186.017L464.471 185.588L463.375 185.328Z"/>
    <path fill="#FA9495" transform="scale(0.0467512 0.0467512)" d="M402.48 532.343C405.208 530.149 409.199 528.192 412.665 525.355C412.773 525.923 411.92 526.963 411.605 527.485C410.34 528.385 409.952 530.089 409.768 531.545C405.107 533.658 399.266 535.878 395.328 539.14C394.266 539.145 393.638 538.967 392.672 538.536C396.15 537.047 399.441 535.075 402.556 532.935L402.48 532.343Z"/>
    <path fill="#763941" transform="scale(0.0467512 0.0467512)" d="M483.165 210.875L483.113 211.457C481.614 212.315 480.09 213.209 479.525 214.965C478.189 219.111 485.854 217.252 487.86 217.787C489.284 220.207 489.09 217.655 492.172 217.955L483.914 222.628C477.095 220.61 480.938 214.078 476.571 214.521C478.67 213.188 480.959 212.032 483.165 210.875Z"/>
    <path fill="#84363B" transform="scale(0.0467512 0.0467512)" d="M351.518 104.665C356.557 101.93 361.876 99.5507 366.997 96.9572C368.169 101.659 366.506 102.748 363.062 105.442C364.248 105.668 365.94 105.766 367.01 106.261L366.926 106.4L366.512 106.336C361.891 105.655 361.975 106.81 358.569 108.861C358.856 107.895 360.469 106.907 360.455 106.091L359.426 106.429C358.684 105.92 358.154 103.754 357.677 102.816C355.931 101.864 353.698 104.506 351.709 105.049L351.518 104.665Z"/>
    <path fill="#84363B" transform="scale(0.0467512 0.0467512)" d="M377.795 131.398C381.066 128.672 390.199 123.512 393.973 121.423C393.172 123.843 389.299 123.491 389.039 126.231C394.92 134.343 398.465 128.837 401.54 128.919C397.467 131.32 393.431 133.706 389.533 136.39C388.395 136.157 391.255 134.563 391.71 133.925L391.163 133.285C381.408 131.104 390.154 125.56 378.283 131.681L377.795 131.398Z"/>
    <path fill="white" transform="scale(0.0467512 0.0467512)" d="M449.446 147.683L451.226 148.55C447.703 152.76 443.534 156.315 438.902 159.269C437.028 160.396 435.138 161.502 433.289 162.67L431.208 161.082C434.125 158.798 436.927 156.329 439.763 153.944L443.433 151.114C445.478 150.075 447.458 148.831 449.446 147.683Z"/>
    <path fill="#84363B" transform="scale(0.0467512 0.0467512)" d="M457.443 208.593C460.27 206.057 471.884 199.845 475.713 197.947C474.419 200.339 466.88 202.164 467.35 204.61C469.29 214.703 478.577 206.916 480.367 207.104C477.874 209.324 471.784 211.895 468.518 213.915L468.448 213.778C468.565 213.086 469.698 212.693 470.167 212.044C468.361 211.243 459.227 213.868 463.858 210.213C458.87 208.499 463.985 205.889 457.601 209.089L457.443 208.593Z"/>
    <path fill="white" transform="scale(0.0467512 0.0467512)" d="M490.302 201.129C494.148 198.529 499.419 196.104 503.758 194.449C505.155 195.582 506.295 196.768 507.467 198.127C505.759 198.99 504.071 199.931 502.23 200.479C495.697 203.726 489.206 206.725 483.165 210.875C480.959 212.032 478.67 213.188 476.571 214.521C475.816 214.82 475.077 215.101 474.375 215.516C471.185 217.068 467.919 218.634 464.946 220.576C459.299 223.188 454.229 226.921 448.551 229.475C454.702 223.676 462.224 219.491 468.518 213.915C471.784 211.895 477.874 209.324 480.367 207.104C483.837 205.418 486.684 202.611 490.302 201.129Z"/>
    <path fill="#262626" transform="scale(0.0467512 0.0467512)" d="M295.882 552.207C232.799 549.27 169.89 510.983 131.744 461.907C79.2083 394.32 69.819 299.42 105.761 222.056C131.629 166.377 183.625 117.49 241.568 96.2721C240.564 98.0306 239.546 99.5074 238.14 100.962C232.275 105.954 225.155 109.249 218.68 113.379C202.261 123.851 183.545 135.789 169.436 149.263C166.02 151.945 162.959 154.994 159.88 158.047C152.462 164.064 143.055 175.68 139.266 184.354C137.706 187.112 135.919 189.878 134.527 192.713C132.718 195.402 128.67 205.327 127.972 208.594C125.359 212.977 123.177 217.446 121.363 222.219C119.54 225.657 117.685 229.222 116.416 232.91L115.076 235.636C112.099 241.65 108.008 255.801 107.078 262.507C105.995 264.88 105.01 267.227 104.173 269.698C103.245 274.514 102.591 279.294 102.143 284.178C101.808 285.203 101.462 286.176 101.354 287.253C100.951 293.658 99.6364 299.945 99.6883 306.413C99.6346 309.357 99.4247 312.491 99.9816 315.392C100.3 319.17 100.15 323.03 100.559 326.776C100.652 329.6 100.695 332.616 101.239 335.39C101.505 338.921 101.822 342.375 102.332 345.879C102.581 348.026 102.711 350.27 103.592 352.272C104.462 355.647 104.976 358.962 105.335 362.423C105.817 364.375 106.164 367.041 107.091 368.796C108.287 371.639 108.642 374.604 109.054 377.636C109.567 379.308 109.981 381.481 110.977 382.905C112.266 385.079 114.754 391.129 117.058 392.013C114.547 393.899 115.588 397.592 117.813 398.489C120.867 398.319 127.15 393.305 130.007 391.516C141.827 393.98 132.197 394.709 132.558 403.008C128.92 405.213 125.411 407.621 121.881 409.993C122.481 411.858 123.137 413.437 124.193 415.107C128.899 412.249 133.572 409.31 138.432 406.718C141.033 407.709 142.808 406.414 145.986 408.121C147.207 409.973 147.612 410.971 147.145 413.142C141.426 416.429 134.629 420.442 129.944 425.087L131.9 428.176C135.892 426.293 142.088 422.142 145.632 420.827C148.198 420.61 150.235 417.55 152.762 418.363C154.318 420.08 154.225 423.775 154.317 426.031L153.215 426.834C151.341 428.179 148.683 428.264 147.521 430.522C143.777 433.314 139.58 435.636 135.567 438.019C136.655 440.135 137.728 442.576 139.534 444.183L142.42 441.869C144.09 442.804 146.88 444.206 148.09 445.655C148.723 445.372 149.68 444.195 150.342 443.71C149.417 445.51 149.502 446.145 150.83 447.647C150.349 447.839 149.831 448.009 149.368 448.24C152.549 450.68 150.953 451.037 151.714 454.307C147.518 456.15 148.549 457.324 151.534 460.144C152.633 459.475 153.796 458.597 155.068 458.338L155.665 457.454C160.652 456.477 178.213 442.566 184.697 439.215L185.113 439.448C182.64 441.826 174.996 445.337 173.487 447.39C174.007 449.147 175.599 452.405 174.995 454.089C172.913 455.438 169.14 459.413 167.971 461.564L168.537 461.49C169.524 460.49 171.03 459.656 172.188 458.832C173.255 459.739 175.029 461.159 175.558 462.452L175.967 462.361L176.703 462.867C179.444 461.961 182.083 460.952 185.014 461.082C186.552 460.591 188.166 460.255 189.733 459.859C191.803 462.038 190.17 464.765 190.406 467.548C191.578 466.926 192.695 466.26 193.809 465.54L198.477 463.147C199.809 465.748 198.567 466.809 196.982 468.947C198.677 468.365 200.347 467.646 202.015 466.988L207.998 464.739C212.992 469.832 209.032 471.01 208.64 477.268C203.901 480.557 199.673 484.568 194.883 487.744C190.435 490.693 185.483 492.785 181.152 495.899L184.14 497.037C186.41 496.255 205.409 486.357 208.623 484.486L209.451 484.009C213.254 486.499 214.382 487.022 214.917 492.211C211.138 495.181 194.593 505.798 194.259 507.212C196.89 510.834 213.5 499.643 216.424 497.683C223.661 493.022 230.85 488.716 238.509 484.775C239.926 485.843 241.211 486.869 242.424 488.174C239.632 490.447 232.02 494.787 235.653 499.007L237.011 498.305L237.527 498.608C240.108 497.427 242.671 496.179 245.373 495.295C244.028 497.399 242.539 499.082 240.745 500.811L234.147 505.748L234.673 505.782C236.639 505.902 243.301 505.094 244.554 505.802C241.13 511.086 246.174 506.531 242.792 514.073C245.27 512.603 247.74 511.16 250.062 509.447L252.144 508.197C252.38 507.799 253.052 507.438 253.435 507.157C253.944 507.978 254.542 508.818 254.906 509.714L254.439 510.378C255.149 512.282 255.996 512.629 257.75 513.321L258.27 513.175C262.461 511.973 276.848 503.701 268.384 516.724C271.505 515.194 278.085 511.135 281.154 511.143C281.371 512.439 281.389 513.637 281.346 514.948C282.42 514.454 283.467 513.694 284.482 513.077C286.28 512.315 288.039 511.532 289.942 511.066C290.325 516.686 288.89 521.734 286.017 526.514L285.065 527.813C286.333 527.468 287.292 526.78 288.366 526.058C288.659 527.487 287.873 528.395 287.102 529.565L286.891 529.882L290.81 527.148C291.271 528.101 291.806 529.062 292.197 530.043C291.185 531.265 290.195 532.509 289.085 533.644C291.71 533.244 293.986 532.12 296.34 530.955C297.644 530.185 299.156 529.67 300.556 529.091C302.392 530.445 304.675 531.549 302.783 533.902C301.26 535.523 297.128 539.752 296.187 541.4C292.743 542.975 289.001 544.412 285.901 546.607C287.455 546.929 288.923 547.24 290.52 547.228C291.903 547.57 293.249 547.886 294.667 548.056C299.52 549.014 304.072 550.516 309.091 550.261L311.731 550.766C313.17 551.112 313.581 550.959 314.495 552.167C308.563 552.69 301.786 553.034 295.882 552.207Z"/>
    <path fill="#993438" transform="scale(0.0467512 0.0467512)" d="M250.623 513.523C252.052 512.586 253.212 511.556 254.439 510.378C255.149 512.282 255.996 512.629 257.75 513.321C255.343 513.623 253.003 513.918 250.574 513.725L250.623 513.523Z"/>
    <path fill="#993438" transform="scale(0.0467512 0.0467512)" d="M175.558 462.452L175.967 462.361L176.703 462.867C175.765 463.643 175.041 464.163 174.627 465.334C172.706 465.99 170.773 466.772 168.749 467.028C169.481 466.376 170.33 465.793 171.108 465.193L175.558 462.452Z"/>
    <path fill="#84363B" transform="scale(0.0467512 0.0467512)" d="M296.34 530.955C297.644 530.185 299.156 529.67 300.556 529.091C302.392 530.445 304.675 531.549 302.783 533.902C303.522 530.485 300.06 532.625 296.34 530.955Z"/>
    <path fill="#84363B" transform="scale(0.0467512 0.0467512)" d="M148.09 445.655C148.723 445.372 149.68 444.195 150.342 443.71C149.417 445.51 149.502 446.145 150.83 447.647C150.349 447.839 149.831 448.009 149.368 448.24C147.821 448.706 146.122 449.165 144.502 448.822C145.607 447.591 146.777 446.642 148.09 445.655Z"/>
    <path fill="#993438" transform="scale(0.0467512 0.0467512)" d="M176.703 462.867C179.444 461.961 182.083 460.952 185.014 461.082C183.937 462.051 182.832 463.286 181.472 463.822C179.207 464.429 176.928 464.887 174.627 465.334C175.041 464.163 175.765 463.643 176.703 462.867Z"/>
    <path fill="#F7B9B3" transform="scale(0.0467512 0.0467512)" d="M172.188 458.832C173.255 459.739 175.029 461.159 175.558 462.452L171.108 465.193C170.98 463.082 170.312 462.645 168.537 461.49C169.524 460.49 171.03 459.656 172.188 458.832Z"/>
    <path fill="#84363B" transform="scale(0.0467512 0.0467512)" d="M294.667 548.056C299.52 549.014 304.072 550.516 309.091 550.261L311.731 550.766C313.17 551.112 313.581 550.959 314.495 552.167C308.563 552.69 301.786 553.034 295.882 552.207C298.271 551.052 304.421 551.926 307.381 551.723C306.674 550.216 297.071 549.673 294.667 548.056Z"/>
    <path fill="#84363B" transform="scale(0.0467512 0.0467512)" d="M189.733 459.859C191.803 462.038 190.17 464.765 190.406 467.548L185.777 470.35C185.926 466.192 185.617 465.012 181.472 463.822C182.832 463.286 183.937 462.051 185.014 461.082C186.552 460.591 188.166 460.255 189.733 459.859Z"/>
    <path fill="white" transform="scale(0.0467512 0.0467512)" d="M167.971 461.564L168.537 461.49C170.312 462.645 170.98 463.082 171.108 465.193C170.33 465.793 169.481 466.376 168.749 467.028C166.54 468.348 164.307 469.795 161.98 470.897C159.651 472.321 158.53 470.788 156.808 469.195C157.585 468.549 158.299 468.077 159.2 467.617L159.85 466.687C161.664 466.58 166.51 462.85 167.971 461.564Z"/>
    <defs>
        <linearGradient id="gradient_4" gradientUnits="userSpaceOnUse" x1="167.7675" y1="454.22049" x2="174.9048" y2="450.98474">
            <stop offset="0" stop-color="#6A4144"/>
            <stop offset="1" stop-color="#933F47"/>
        </linearGradient>
    </defs>
    <path fill="url(#gradient_4)" transform="scale(0.0467512 0.0467512)" d="M155.665 457.454C160.652 456.477 178.213 442.566 184.697 439.215L185.113 439.448C182.64 441.826 174.996 445.337 173.487 447.39C174.007 449.147 175.599 452.405 174.995 454.089C172.913 455.438 169.14 459.413 167.971 461.564C166.51 462.85 161.664 466.58 159.85 466.687C160.043 466.353 168.898 459.323 170.37 457.837C168.946 455.972 167.845 453.877 166.845 451.763C163.646 453.75 158.602 457.698 155.068 458.338L155.665 457.454Z"/>
    <path fill="white" transform="scale(0.0467512 0.0467512)" d="M253.435 507.157C253.944 507.978 254.542 508.818 254.906 509.714L254.439 510.378C253.212 511.556 252.052 512.586 250.623 513.523L250.574 513.725C241.878 518.951 234.392 525.954 223.655 525.941C228.383 522.376 237.504 516.995 242.792 514.073C245.27 512.603 247.74 511.16 250.062 509.447L252.144 508.197C252.38 507.799 253.052 507.438 253.435 507.157Z"/>
    <path fill="#DCA8BC" transform="scale(0.0467512 0.0467512)" d="M253.435 507.157C253.944 507.978 254.542 508.818 254.906 509.714L254.439 510.378C253.212 511.556 252.052 512.586 250.623 513.523C250.748 511.549 251.973 510.098 252.144 508.197C252.38 507.799 253.052 507.438 253.435 507.157Z"/>
    <path fill="white" transform="scale(0.0467512 0.0467512)" d="M288.366 526.058C288.659 527.487 287.873 528.395 287.102 529.565L286.891 529.882L290.81 527.148C291.271 528.101 291.806 529.062 292.197 530.043C291.185 531.265 290.195 532.509 289.085 533.644C278.516 538.056 276.16 544.285 262.324 542.24C271.249 540.025 279.074 534.731 285.065 527.813C286.333 527.468 287.292 526.78 288.366 526.058Z"/>
    <path fill="white" transform="scale(0.0467512 0.0467512)" d="M198.477 463.147C199.809 465.748 198.567 466.809 196.982 468.947C188.599 472.587 180.029 480.173 171.697 484.732C170.72 483.885 169.749 483.072 168.906 482.087C174.42 477.901 179.91 474.021 185.777 470.35L190.406 467.548C191.578 466.926 192.695 466.26 193.809 465.54L198.477 463.147Z"/>
    <path fill="white" transform="scale(0.0467512 0.0467512)" d="M237.527 498.608C240.108 497.427 242.671 496.179 245.373 495.295C244.028 497.399 242.539 499.082 240.745 500.811L234.147 505.748C230.629 507.924 216.224 519.151 213.68 518.555C212.153 518.043 210.975 517.227 209.662 516.325C213.414 513.394 218.026 511.99 222.056 509.486C222.406 508.991 223.018 508.573 223.48 508.173C227.656 504.235 232.753 501.699 237.527 498.608Z"/>
    <path fill="white" transform="scale(0.0467512 0.0467512)" d="M268.384 516.724C271.505 515.194 278.085 511.135 281.154 511.143C281.371 512.439 281.389 513.637 281.346 514.948C273.169 520.205 254.905 532.095 246.739 535.465C244.948 534.964 243.453 534.395 241.8 533.543C250.529 528.084 260.294 523.107 268.384 516.724Z"/>
    <defs>
        <linearGradient id="gradient_5" gradientUnits="userSpaceOnUse" x1="218.41119" y1="496.61157" x2="241.49025" y2="495.92834">
            <stop offset="0" stop-color="#583432"/>
            <stop offset="1" stop-color="#933E49"/>
        </linearGradient>
    </defs>
    <path fill="url(#gradient_5)" transform="scale(0.0467512 0.0467512)" d="M238.509 484.775C239.926 485.843 241.211 486.869 242.424 488.174C239.632 490.447 232.02 494.787 235.653 499.007L237.011 498.305L237.527 498.608C232.753 501.699 227.656 504.235 223.48 508.173C221.998 502.052 221.752 501.011 216.424 497.683C223.661 493.022 230.85 488.716 238.509 484.775Z"/>
    <path fill="#262626" transform="scale(0.0467512 0.0467512)" d="M245.866 167.318C283.849 163.851 313.352 213.542 309.248 244.926C306.754 263.996 295.291 274.382 280.902 285.428C289.617 308.214 319.801 347.92 342.458 360.468C361.615 351.603 374.479 337.746 399.74 345.482C430.357 354.859 455.497 399.262 445.662 430.314C441.346 443.941 427.032 451.438 415.14 457.579C360.867 485.01 326.605 462.571 285.34 422.432C255.097 393.015 222.782 352.859 205.135 314.117C198.565 299.694 194.067 284.143 189.672 268.934C184.17 249.89 173.043 219.332 187.553 201.842C191.208 197.437 196.052 194.596 200.526 191.145C214.467 180.393 227.208 168.974 245.866 167.318Z"/>
    <path fill="#F7B9B3" transform="scale(0.0467512 0.0467512)" d="M290.336 245.878C291.938 245.643 293.391 245.554 295.005 245.586C293.716 248.473 292.432 247.829 290.336 245.878Z"/>
    <path fill="white" transform="scale(0.0467512 0.0467512)" d="M286.007 242.066C286.779 239.83 292.39 234.805 294.542 233.812C295.14 236.625 295.736 239.432 296.215 242.269C295.807 243.372 295.388 244.473 295.005 245.586C293.391 245.554 291.938 245.643 290.336 245.878C288.943 244.546 287.595 243.167 286.007 242.066Z"/>
    <path fill="#993438" transform="scale(0.0467512 0.0467512)" d="M418.922 395.374C421.556 393.94 424.31 392.705 427.017 391.415C427.509 393.426 428.209 395.258 429.012 397.164C425.492 398.484 422.278 401.083 420.051 404.101C418.38 402.178 416.504 400.428 415.209 398.217C416.516 397.395 417.714 396.335 418.922 395.374Z"/>
    <path fill="#993438" transform="scale(0.0467512 0.0467512)" d="M418.087 377.555C419.836 379.572 421.455 381.838 422.725 384.188C419.713 385.649 417.386 387.865 415.04 390.22C413.993 391.077 412.837 391.904 411.984 392.958C409.968 391.352 409.26 388.5 407.666 386.529C411.459 385.053 414.657 382.593 417.816 380.096L418.087 377.555Z"/>
    <path fill="white" transform="scale(0.0467512 0.0467512)" d="M415.04 390.22C417.386 387.865 419.713 385.649 422.725 384.188C424.594 386.496 426.023 388.6 427.017 391.415C424.31 392.705 421.556 393.94 418.922 395.374C417.714 396.335 416.516 397.395 415.209 398.217L411.984 392.958C412.837 391.904 413.993 391.077 415.04 390.22Z"/>
    <path fill="#FA9495" transform="scale(0.0467512 0.0467512)" d="M415.04 390.22C415.832 392.832 415.969 394.892 418.922 395.374C417.714 396.335 416.516 397.395 415.209 398.217L411.984 392.958C412.837 391.904 413.993 391.077 415.04 390.22Z"/>
    <path fill="white" transform="scale(0.0467512 0.0467512)" d="M277.518 194.719C278.961 195.521 279.758 196.91 280.519 198.326C276.401 201.035 266.483 208.944 263.284 210.297C262.337 208.673 261.652 206.829 260.898 205.103C262.861 202.561 274.193 196.386 277.518 194.719Z"/>
    <path fill="white" transform="scale(0.0467512 0.0467512)" d="M429.012 397.164C433.123 404.457 432.178 409.252 432.177 417.238C428.487 412.535 423.815 408.766 420.051 404.101C422.278 401.083 425.492 398.484 429.012 397.164Z"/>
    <path fill="white" transform="scale(0.0467512 0.0467512)" d="M252.503 193.623C260.604 187.753 267.978 182.079 274.63 189.561C268.094 192.498 262.15 197.224 257.124 199.397C255.346 197.76 253.889 195.593 252.503 193.623Z"/>
    <path fill="#993438" transform="scale(0.0467512 0.0467512)" d="M292.689 227.325C293.589 229.36 294.076 231.642 294.542 233.812C292.39 234.805 286.779 239.83 286.007 242.066C282.983 241.071 279.689 235.289 278.179 232.651L277.164 231.662C277.853 230.61 278.494 229.869 279.485 229.092C280.66 229.592 281.901 230.021 282.917 230.808C286.108 229.381 289.314 228.24 292.689 227.325Z"/>
    <path fill="#FA9495" transform="scale(0.0467512 0.0467512)" d="M279.485 229.092C280.66 229.592 281.901 230.021 282.917 230.808C281.298 231.355 279.742 231.96 278.179 232.651L277.164 231.662C277.853 230.61 278.494 229.869 279.485 229.092Z"/>
    <path fill="white" transform="scale(0.0467512 0.0467512)" d="M412.189 368.9C413.404 370.324 414.369 372.191 415.018 373.948C415.986 375.115 416.957 376.559 418.087 377.555L417.816 380.096C414.657 382.593 411.459 385.053 407.666 386.529C405.932 385.69 404.419 382.548 403.411 380.974C402.776 379.528 401.497 375.17 400.325 374.381C401.865 372.848 409.746 370.162 412.189 368.9Z"/>
    <path fill="#F7B9B3" transform="scale(0.0467512 0.0467512)" d="M415.018 373.948C415.986 375.115 416.957 376.559 418.087 377.555L417.816 380.096C417.042 377.566 414.928 376.447 413.123 374.713C413.761 374.562 414.411 374.207 415.018 373.948Z"/>
    <path fill="#84363B" transform="scale(0.0467512 0.0467512)" d="M412.189 368.9C413.404 370.324 414.369 372.191 415.018 373.948C414.411 374.207 413.761 374.562 413.123 374.713C410.197 376.042 405.524 378.548 403.411 380.974C402.776 379.528 401.497 375.17 400.325 374.381C401.865 372.848 409.746 370.162 412.189 368.9Z"/>
    <path fill="white" transform="scale(0.0467512 0.0467512)" d="M385.37 357.559C395.817 353.812 405.935 360.688 412.189 368.9C409.746 370.162 401.865 372.848 400.325 374.381L399.218 374.694C396.863 373.834 395.455 371.428 394.431 369.279C404.031 364.956 400.52 362.342 402.488 361.593L402.659 361.778C399.918 359.839 391.21 363.43 389.18 362.211L389.72 361.506C387.657 360.411 386.789 359.34 385.37 357.559Z"/>
    <path fill="#993438" transform="scale(0.0467512 0.0467512)" d="M287.38 212.191C288.131 213.833 289.033 215.568 289.546 217.296C290.87 220.568 291.818 223.908 292.689 227.325C289.314 228.24 286.108 229.381 282.917 230.808C281.901 230.021 280.66 229.592 279.485 229.092C278.494 229.869 277.853 230.61 277.164 231.662C276.667 230.311 272.074 224.735 270.74 221.884C276.093 219.317 281.102 215.214 287.38 212.191Z"/>
    <path fill="white" transform="scale(0.0467512 0.0467512)" d="M289.546 217.296C290.87 220.568 291.818 223.908 292.689 227.325C289.314 228.24 286.108 229.381 282.917 230.808C281.901 230.021 280.66 229.592 279.485 229.092C283.081 225.372 285.797 220.964 289.546 217.296Z"/>
    <path fill="#993438" transform="scale(0.0467512 0.0467512)" d="M280.519 198.326C281.797 200.328 283.073 202.567 283.837 204.819C285.183 207.232 286.288 209.659 287.38 212.191C281.102 215.214 276.093 219.317 270.74 221.884C270.048 220.81 269.324 219.758 268.604 218.703C266.166 216.617 265.271 212.799 263.284 210.297C266.483 208.944 276.401 201.035 280.519 198.326Z"/>
    <path fill="white" transform="scale(0.0467512 0.0467512)" d="M283.837 204.819C285.183 207.232 286.288 209.659 287.38 212.191C281.102 215.214 276.093 219.317 270.74 221.884C270.048 220.81 269.324 219.758 268.604 218.703C270.984 215.355 275.232 213.33 278.528 210.989C278.591 208.471 282.001 206.443 283.837 204.819Z"/>
    <path fill="#636C77" transform="scale(0.0467512 0.0467512)" d="M199.891 250.417C194.913 242.579 194.338 226.453 196.346 217.526C199.663 202.78 209.673 192.88 223.501 187.916C239.821 200.778 251.016 222.413 264.113 238.608C268.766 244.361 284.81 260.399 286.607 265.525C280.331 274.174 268.667 276.966 262.358 285.343C279.293 314.835 303.097 356.311 333.04 374.786C359.569 391.155 344.124 364.639 368.518 359.339C372.657 363.04 394.103 392.697 397.263 397.496L398.65 399.477C406.225 408.411 419.966 426.015 426.229 435.51C419.367 439.66 396.658 454.665 391.88 456.222C386.433 458.243 383.763 463.01 377.196 462.443C375.312 461.263 367.409 460.004 364.037 458.434C362.39 458.116 360.928 457.567 359.377 456.956C356.081 455.128 352.026 454.52 349.074 452.082L343.75 449.432C340.555 447.297 336.835 445.14 334.186 442.359C332.089 440.86 330.088 439.304 328.121 437.638C326.38 436.138 319.489 428.604 318.312 428.381C316.509 426.729 314.548 425.322 312.798 423.587C311.113 422.155 309.567 420.675 308.046 419.07C306.779 418.021 305.602 416.885 304.415 415.748C302.667 413.306 300.069 410.939 297.905 408.832C296.056 407.641 294.469 406.117 293.014 404.482C290.379 403.12 286.852 397.478 284.212 395.203C282.462 394.033 281.095 392.557 279.799 390.917C277.82 388.948 276.102 386.667 274.329 384.512C273.157 383.248 271.911 382.057 270.677 380.854C268.487 378.41 266.341 375.945 264.241 373.422C262.471 371.633 260.789 369.747 259.081 367.899C256.921 365.978 255.083 363.114 253.408 360.746C251.707 358.978 250.159 357.107 248.606 355.209C246.514 352.197 244.463 349.195 242.573 346.05C241.63 345.058 240.858 343.892 240.053 342.787C238.443 340.295 236.679 337.01 234.606 334.924C233.378 333.111 232.289 331.205 231.17 329.323C229.42 326.579 227.903 323.7 226.353 320.84C224.437 318.4 223.238 315.073 221.925 312.267C219.555 309.506 218.482 305.24 216.791 302.014C214.491 298.025 219.653 297.078 222.574 295.86C221.737 294.476 220.841 293.514 219.629 292.438C218.126 292.192 216.687 291.987 215.258 291.434C213.422 291.356 212.989 288.254 212.546 286.84C212.52 285.484 212.182 284.045 211.979 282.7C211.494 282.449 211.096 281.856 210.648 281.497L209.568 277.857C208.346 275.592 206.918 269.329 205.78 268.167C205.101 266.729 204.703 265.165 204.243 263.645C203.914 260.934 202.632 257.942 201.866 255.287C201.26 253.63 200.642 252.015 199.891 250.417Z"/>
    <path fill="white" transform="scale(0.0467512 0.0467512)" d="M222.574 295.86L225.353 294.608C222.765 297.193 220.093 300.328 216.791 302.014C214.491 298.025 219.653 297.078 222.574 295.86Z"/>
    <path fill="white" transform="scale(0.0467512 0.0467512)" d="M223.7 270.629C219.249 274.165 214.923 277.755 210.648 281.497L209.568 277.857C213.282 275.306 219.405 273.019 223.7 270.629Z"/>
    <defs>
        <linearGradient id="gradient_6" gradientUnits="userSpaceOnUse" x1="313.27249" y1="408.10065" x2="309.30014" y2="418.68341">
            <stop offset="0" stop-color="#7D8592"/>
            <stop offset="1" stop-color="#A5A4B1"/>
        </linearGradient>
    </defs>
    <path fill="url(#gradient_6)" transform="scale(0.0467512 0.0467512)" d="M304.415 415.748C307.33 414.692 320.877 406.797 322.173 406.86C321.609 407.791 309.552 417.97 308.046 419.07C306.779 418.021 305.602 416.885 304.415 415.748Z"/>
    <path fill="white" transform="scale(0.0467512 0.0467512)" d="M231.091 249.843C227.182 253.604 218.561 257.515 213.718 260.916C211.118 262.742 207.537 267.115 205.78 268.167C205.101 266.729 204.703 265.165 204.243 263.645C212.266 259.117 222.744 253.915 231.091 249.843Z"/>
    <path fill="white" transform="scale(0.0467512 0.0467512)" d="M343.75 449.432C349.484 444.86 356.653 441.011 362.916 437.183C357.528 442.172 353.817 447.282 349.074 452.082L343.75 449.432Z"/>
    <path fill="white" transform="scale(0.0467512 0.0467512)" d="M398.578 448.329C396.294 450.904 393.939 453.462 391.88 456.222C386.433 458.243 383.763 463.01 377.196 462.443C377.877 460.601 395.534 450.542 398.578 448.329Z"/>
    <path fill="white" transform="scale(0.0467512 0.0467512)" d="M259.081 367.899C264.35 366.908 268.437 363.228 273.161 360.901C270.765 365.397 267.36 369.412 264.241 373.422C262.471 371.633 260.789 369.747 259.081 367.899Z"/>
    <path fill="white" transform="scale(0.0467512 0.0467512)" d="M270.677 380.854C276.101 377.353 284.041 373.288 290.06 370.577C285.992 376.238 279.898 380.408 274.329 384.512C273.157 383.248 271.911 382.057 270.677 380.854Z"/>
    <path fill="white" transform="scale(0.0467512 0.0467512)" d="M233.922 275.901C230.387 279.006 218.658 289.499 215.258 291.434C213.422 291.356 212.989 288.254 212.546 286.84C213.314 286.047 231.298 277.315 233.922 275.901Z"/>
    <path fill="white" transform="scale(0.0467512 0.0467512)" d="M240.053 342.787C242.707 340.281 255.499 334.589 259.431 332.843C254.927 338.483 249.256 343.243 242.573 346.05C241.63 345.058 240.858 343.892 240.053 342.787Z"/>
    <path fill="white" transform="scale(0.0467512 0.0467512)" d="M279.799 390.917C286.874 387.984 293.251 383.913 300.186 380.837C296.789 385.549 289.108 391.967 284.212 395.203C282.462 394.033 281.095 392.557 279.799 390.917Z"/>
    <path fill="white" transform="scale(0.0467512 0.0467512)" d="M199.891 250.417C206.678 245.021 215.396 241.453 223.293 237.97C216.12 243.684 208.651 249.107 201.866 255.287C201.26 253.63 200.642 252.015 199.891 250.417Z"/>
    <path fill="white" transform="scale(0.0467512 0.0467512)" d="M350.436 427.174C345.115 432.324 339.844 437.575 334.186 442.359C332.089 440.86 330.088 439.304 328.121 437.638C336.16 433.772 342.339 432.635 350.436 427.174Z"/>
    <path fill="white" transform="scale(0.0467512 0.0467512)" d="M231.17 329.323C237.799 326.23 244.706 324.025 251.264 320.711C246.366 325.776 240.678 331.307 234.606 334.924C233.378 333.111 232.289 331.205 231.17 329.323Z"/>
    <path fill="white" transform="scale(0.0467512 0.0467512)" d="M248.606 355.209C254.2 352.509 263.393 349.563 269.774 346.889C266.488 350.364 257.251 358.597 253.408 360.746C251.707 358.978 250.159 357.107 248.606 355.209Z"/>
    <path fill="white" transform="scale(0.0467512 0.0467512)" d="M312.798 423.587C320.325 420.352 327.253 416.371 334.489 412.59C329.584 417.984 324.154 424.02 318.312 428.381C316.509 426.729 314.548 425.322 312.798 423.587Z"/>
    <path fill="white" transform="scale(0.0467512 0.0467512)" d="M221.925 312.267C234.477 311.362 232.067 311.093 244.36 306.775C238.506 311.432 232.631 316.806 226.353 320.84C224.437 318.4 223.238 315.073 221.925 312.267Z"/>
    <path fill="white" transform="scale(0.0467512 0.0467512)" d="M293.014 404.482C295.584 403.133 313.359 394.72 314.762 395.117C313.922 399.258 302.082 405.614 297.905 408.832C296.056 407.641 294.469 406.117 293.014 404.482Z"/>
    <path fill="white" transform="scale(0.0467512 0.0467512)" d="M401.299 425.764C397.332 431.637 368.912 455.858 364.037 458.434C362.39 458.116 360.928 457.567 359.377 456.956C369.627 447.211 389.489 433.431 401.299 425.764Z"/>
</svg>
